<svg width="25" height="25" viewBox="0 0 25 25" fill="none" xmlns="http://www.w3.org/2000/svg">
<path d="M14.8719 12.6711C14.8407 12.6973 14.8062 12.7218 14.7699 12.7404C14.6375 12.8079 14.5068 12.8811 14.3694 12.9365C14.1618 13.02 13.9647 13.1244 13.7633 13.2199C13.6441 13.2766 13.5229 13.3293 13.4026 13.3839C13.3725 13.3975 13.3415 13.4096 13.3118 13.4237C12.9092 13.6157 12.5075 13.8092 12.104 13.9994C11.9397 14.077 11.7725 14.1481 11.6062 14.2215C11.5289 14.2554 11.4475 14.2649 11.3637 14.2584C11.2649 14.251 11.1897 14.2032 11.1452 14.1168C11.1195 14.0664 11.101 14.0095 11.0933 13.9534C11.0833 13.88 11.0856 13.8051 11.0853 13.7307C11.0847 13.3176 11.085 12.9044 11.085 12.4915C11.085 12.0865 11.0847 11.6819 11.0853 11.2769C11.0853 11.2026 11.0868 11.1283 11.0912 11.054C11.0951 10.987 11.1163 10.9248 11.1532 10.8682C11.2012 10.7941 11.2676 10.7514 11.3561 10.7422C11.4575 10.7316 11.5534 10.7511 11.6445 10.7953C11.9197 10.9286 12.2043 11.0407 12.4753 11.1828C12.5924 11.2442 12.7154 11.2931 12.8357 11.3477C12.8658 11.3613 12.8968 11.3731 12.9266 11.3875C13.3292 11.5792 13.7314 11.7721 14.1343 11.9635C14.2237 12.006 14.3154 12.0437 14.4054 12.0853C14.5251 12.1411 14.6448 12.1974 14.7631 12.2561C14.7997 12.2741 14.8342 12.2983 14.8663 12.3239C14.9766 12.4133 14.9793 12.5808 14.8719 12.6711Z" fill="white"/>
<path d="M4.42335 0L4.42424 0.000884789L0.0117972 4.41362C0.00442394 4.42099 0 4.43132 0 4.44193V24.9599C0 24.982 0.0179907 24.9997 0.0398155 24.9997H20.6987C20.7094 24.9997 20.7194 24.9956 20.7271 24.9879L24.9882 20.7276C24.9956 20.7203 25 20.71 25 20.6993V0.0398155C25 0.0176958 24.982 0 24.9602 0H4.42335ZM19.5627 14.1436C19.5294 14.3073 19.5276 14.4722 19.5276 14.6376C19.5276 14.7539 19.5184 14.8683 19.499 14.9833C19.4704 15.1544 19.4547 15.3275 19.4285 15.4991C19.3884 15.7616 19.32 16.0173 19.2306 16.2671C19.1433 16.5122 18.9961 16.7225 18.8301 16.9192C18.5723 17.2245 18.2399 17.4185 17.8686 17.5554C17.5014 17.6908 17.1201 17.7651 16.737 17.8317C16.509 17.8713 16.2786 17.8975 16.0495 17.9291C16.0167 17.9335 15.9834 17.9353 15.9504 17.9356C15.7681 17.9364 15.5867 17.9406 15.4068 17.9768C15.3428 17.9895 15.275 17.9854 15.2089 17.9863C15.0682 17.9878 14.9276 17.9878 14.7869 17.988C14.6459 17.988 14.5064 17.9934 14.3666 18.0178C14.2696 18.0349 14.169 18.0346 14.0699 18.0349C13.5402 18.0364 13.0108 18.0355 12.4811 18.0355C11.9679 18.0355 11.4551 18.0352 10.9419 18.0358C10.8092 18.0358 10.6779 18.0305 10.5467 18.006C10.4659 17.991 10.3821 17.9907 10.2995 17.9889C10.1506 17.986 10.0017 17.9869 9.85271 17.9869C9.71999 17.9869 9.58816 17.9842 9.45751 17.9565C9.40118 17.9444 9.34219 17.9376 9.28497 17.9406C9.05139 17.9521 8.82311 17.9087 8.59395 17.878C8.31524 17.8406 8.03831 17.7934 7.76255 17.7365C7.40303 17.6627 7.06091 17.5412 6.73944 17.366C6.37461 17.1676 6.08587 16.8924 5.90036 16.5137C5.76853 16.2444 5.66766 15.9657 5.61133 15.6714C5.56945 15.4522 5.52256 15.2337 5.51784 15.0093C5.51784 15.001 5.51784 14.9925 5.51607 14.9845C5.45443 14.6984 5.47478 14.4079 5.47124 14.1189C5.46917 13.9452 5.4733 13.7717 5.43762 13.5998C5.42257 13.5278 5.42464 13.4514 5.42434 13.3771C5.42346 12.8064 5.42316 12.2354 5.42464 11.6645C5.42493 11.5822 5.42788 11.4984 5.44234 11.4176C5.46446 11.2943 5.47094 11.1713 5.47065 11.0469C5.47065 10.8814 5.47183 10.716 5.47183 10.5505C5.47183 10.3933 5.47124 10.2361 5.50722 10.0816C5.51489 10.0494 5.51725 10.0158 5.51813 9.98278C5.52639 9.71675 5.5783 9.45662 5.63817 9.19915C5.70364 8.9169 5.80451 8.64409 5.95138 8.39193C6.11684 8.10791 6.3404 7.87786 6.62205 7.70828C6.87776 7.55403 7.1485 7.43429 7.43724 7.35023C7.7245 7.26677 8.01707 7.21457 8.31082 7.16797C8.56387 7.12786 8.81869 7.09984 9.07292 7.06887C9.13013 7.06179 9.18853 7.06297 9.24634 7.06238C9.35428 7.06179 9.46075 7.05324 9.56752 7.03466C9.64833 7.0208 9.73179 7.01637 9.81408 7.01431C9.9465 7.01048 10.0789 7.01195 10.2113 7.01195C10.352 7.01166 10.4921 7.00841 10.6316 6.98157C10.7118 6.96624 10.7962 6.96506 10.8785 6.96506C11.9626 6.96417 13.0468 6.96417 14.1307 6.96506C14.2132 6.96535 14.297 6.9686 14.3778 6.98334C14.5008 7.00546 14.6241 7.01195 14.7482 7.01166C14.8807 7.01166 15.0131 7.01284 15.1455 7.01284C15.2532 7.01284 15.3605 7.01608 15.4664 7.03938C15.4988 7.04646 15.5319 7.05383 15.5646 7.05413C15.7882 7.05766 16.0094 7.08539 16.2314 7.10751C16.4538 7.12963 16.6744 7.16177 16.8945 7.19805C16.9841 7.2128 17.0726 7.2358 17.1625 7.25055C17.4834 7.30275 17.7866 7.41188 18.0845 7.53811C18.1299 7.55728 18.1756 7.57792 18.2181 7.60328C18.4175 7.72244 18.6033 7.85928 18.7726 8.01943C18.982 8.21674 19.1271 8.45504 19.2262 8.72195C19.3418 9.0334 19.4247 9.35576 19.4639 9.68401C19.4975 9.96803 19.545 10.2526 19.5308 10.5417C19.5267 10.6275 19.5323 10.7136 19.5473 10.7983C19.5674 10.9121 19.5762 11.0259 19.5762 11.141C19.576 12.0676 19.5762 12.9943 19.5754 13.921C19.5754 13.9953 19.5771 14.0714 19.5627 14.1436Z" fill="white"/>
</svg>
