<svg width="25" height="25" viewBox="0 0 25 25" fill="none" xmlns="http://www.w3.org/2000/svg">
<path d="M11.2678 13.122C11.2782 13.2639 11.2569 13.4335 11.2074 13.6004C11.1581 13.7673 11.0794 13.9198 10.993 14.069C10.9717 14.1056 10.9411 14.1375 10.9116 14.169C10.8626 14.2212 10.8086 14.269 10.7611 14.3227C10.6585 14.4383 10.5308 14.5159 10.3907 14.5751C10.1831 14.6627 9.96778 14.7158 9.74098 14.6967C9.51653 14.6778 9.30212 14.6235 9.11631 14.4873C9.0411 14.4321 8.96442 14.3787 8.89275 14.3194C8.78038 14.2268 8.70193 14.1056 8.62613 13.9841C8.49489 13.7735 8.42912 13.5385 8.38901 13.2966C8.37515 13.2126 8.37515 13.1247 8.37957 13.0391C8.39137 12.823 8.42971 12.6118 8.52733 12.4154C8.58189 12.3062 8.63498 12.1968 8.70429 12.0954C8.77389 11.9936 8.85707 11.9057 8.9538 11.8299C9.1402 11.6833 9.18179 11.66 9.40239 11.5813C9.63126 11.4999 9.86396 11.4834 10.1014 11.54C10.2064 11.5651 10.309 11.5954 10.4078 11.6397C10.5405 11.6987 10.6609 11.7739 10.7591 11.8827C10.793 11.9199 10.8296 11.9544 10.8656 11.9895C11.0024 12.1219 11.0921 12.2838 11.1599 12.4596C11.1752 12.4997 11.1861 12.5416 11.2015 12.582C11.2496 12.7112 11.2737 12.8442 11.2678 12.9825C11.2664 13.0182 11.2678 13.0542 11.2678 13.122Z" fill="white"/>
<path d="M16.5519 12.6212C16.6065 12.8256 16.6248 13.0303 16.6142 13.2394C16.6112 13.2963 16.6062 13.3547 16.5915 13.4095C16.5561 13.5411 16.5201 13.6729 16.4741 13.8009C16.4151 13.9649 16.3204 14.1091 16.1971 14.233C16.1314 14.2987 16.0659 14.3666 15.9919 14.4223C15.7235 14.6243 15.4179 14.719 15.0838 14.6951C14.8375 14.6774 14.6033 14.6102 14.404 14.4527C14.3535 14.4126 14.2993 14.3769 14.2503 14.3347C14.0619 14.1713 13.9324 13.9672 13.8442 13.7354C13.8339 13.7086 13.8265 13.6809 13.8162 13.654C13.7478 13.4786 13.7103 13.2978 13.728 13.1252C13.7283 13.1238 13.7283 13.1223 13.728 13.1205C13.7088 12.7545 13.8132 12.4407 14.0023 12.1505C14.066 12.0532 14.1433 11.9688 14.2288 11.8921C14.4131 11.7276 14.6169 11.6016 14.8635 11.5453C15.2265 11.4618 15.566 11.5179 15.8777 11.7096C16.2219 11.921 16.4469 12.2266 16.5519 12.6212Z" fill="white"/>
<path d="M4.42335 0L4.42424 0.000884789L0.0117972 4.41362C0.00442394 4.42099 0 4.43132 0 4.44193V24.9599C0 24.982 0.0179907 24.9997 0.0398155 24.9997H20.6987C20.7094 24.9997 20.7194 24.9956 20.7271 24.9879L24.9882 20.7276C24.9956 20.7203 25 20.71 25 20.6993V0.0398155C25 0.0176958 24.982 0 24.9602 0H4.42335ZM20.528 15.4124C20.507 15.5699 20.497 15.7268 20.5003 15.8849C20.5035 16.0583 20.4832 16.2285 20.4554 16.3993C20.4416 16.4824 20.4035 16.547 20.3389 16.598C20.3277 16.6072 20.3168 16.6166 20.305 16.6246C20.0711 16.7791 19.8399 16.9378 19.6025 17.0865C19.3772 17.2274 19.1483 17.3637 18.915 17.4905C18.6434 17.6377 18.3691 17.7807 18.0833 17.8993C17.9706 17.9462 17.8577 17.9928 17.7462 18.0432C17.3985 18.2001 17.0369 18.3201 16.6753 18.4396C16.6343 18.4532 16.593 18.4658 16.5514 18.477C16.4429 18.5068 16.3556 18.4797 16.286 18.3871C16.143 18.1977 16.0097 18.0016 15.8846 17.8002C15.7858 17.6415 15.6926 17.4793 15.6136 17.3097C15.5985 17.2773 15.585 17.2439 15.5726 17.2103C15.5608 17.1791 15.5779 17.1307 15.6062 17.1154C15.6375 17.0985 15.6693 17.0808 15.7026 17.069C16.0076 16.9596 16.3008 16.8234 16.5883 16.675C16.6588 16.6387 16.7284 16.6016 16.7847 16.5441C16.8086 16.5193 16.813 16.4692 16.7918 16.445C16.7871 16.4394 16.7839 16.4329 16.7785 16.4282C16.5812 16.2465 16.5815 16.2226 16.3075 16.3438C16.0244 16.4689 15.7366 16.5798 15.4399 16.6677C15.3986 16.6797 15.3573 16.693 15.3166 16.7075C15.0653 16.7956 14.8063 16.8558 14.5462 16.9104C14.3141 16.959 14.0805 17.0003 13.8472 17.0419C13.7626 17.057 13.6765 17.0629 13.5909 17.0726C13.5623 17.0758 13.5328 17.0735 13.5051 17.0797C13.3208 17.1227 13.1335 17.1142 12.9468 17.1156C12.8277 17.1165 12.7085 17.113 12.5911 17.1381C12.5301 17.1513 12.467 17.1525 12.4059 17.1389C12.2941 17.1142 12.1809 17.1162 12.0676 17.1156C11.9812 17.1154 11.8951 17.1154 11.8087 17.1139C11.7585 17.1133 11.7078 17.1139 11.6583 17.1071C11.2811 17.0555 10.903 17.0115 10.5302 16.9307C10.2491 16.8697 9.97098 16.8004 9.69551 16.7166C9.37847 16.6208 9.06967 16.5046 8.76059 16.3872C8.70042 16.3642 8.63849 16.342 8.58275 16.3102C8.47215 16.2471 8.37777 16.2654 8.28959 16.3515C8.26924 16.3715 8.24446 16.3869 8.22264 16.4058C8.17338 16.4488 8.17014 16.5178 8.22057 16.5547C8.27808 16.5972 8.33736 16.6387 8.40048 16.6718C8.6494 16.8007 8.8995 16.9272 9.16287 17.0251C9.22333 17.0475 9.28143 17.0764 9.33806 17.1074C9.39085 17.136 9.41504 17.2009 9.3938 17.2566C9.3708 17.3168 9.34366 17.3755 9.31329 17.4324C9.17054 17.6984 8.99889 17.9473 8.84022 18.2039C8.79509 18.2768 8.73935 18.3437 8.68568 18.411C8.63111 18.4794 8.5565 18.5039 8.47333 18.4829C8.35506 18.4534 8.23561 18.424 8.12148 18.3818C7.8584 18.285 7.59208 18.1977 7.3346 18.0863C7.08391 17.9777 6.83145 17.8736 6.58725 17.7512C6.4973 17.7061 6.40764 17.6601 6.3171 17.6164C6.01273 17.4687 5.72458 17.2929 5.43319 17.1218C5.17896 16.9726 4.93978 16.801 4.69823 16.6326C4.66874 16.6119 4.64013 16.5904 4.61211 16.568C4.5779 16.5399 4.55342 16.5043 4.54368 16.4609C4.5198 16.3559 4.49473 16.2509 4.49561 16.1418C4.4965 16.0627 4.49532 15.9837 4.49384 15.9047C4.49266 15.8472 4.49738 15.7882 4.48558 15.7327C4.44341 15.5336 4.45462 15.3322 4.45285 15.1673C4.45285 15.0379 4.45137 14.9444 4.45344 14.8509C4.45462 14.7863 4.45403 14.7205 4.46641 14.6577C4.4903 14.5368 4.49473 14.4153 4.49443 14.2932C4.49384 14.1492 4.49325 14.0056 4.52687 13.864C4.53189 13.8434 4.53366 13.8216 4.53425 13.8C4.54221 13.4972 4.60709 13.2016 4.65045 12.9035C4.69085 12.6256 4.75426 12.3525 4.81915 12.0803C4.8858 11.801 4.96632 11.5247 5.05037 11.2498C5.14918 10.9268 5.26007 10.6077 5.39397 10.2969C5.54733 9.9406 5.68831 9.57902 5.86969 9.23542C5.92012 9.14016 5.9735 9.04638 6.02541 8.952C6.03927 8.92693 6.05549 8.90274 6.06759 8.87708C6.22272 8.55178 6.42091 8.25154 6.60524 7.94334C6.67898 7.82035 6.76745 7.70621 6.85033 7.58883C6.8925 7.52926 6.94618 7.48177 7.01107 7.44815C7.06858 7.41836 7.1252 7.38622 7.18507 7.36233C7.40539 7.27503 7.62688 7.19009 7.84837 7.10515C7.92889 7.07418 8.00999 7.04528 8.0911 7.01549C8.13829 6.99809 8.18459 6.97833 8.23296 6.96447C8.61283 6.85534 8.98827 6.73088 9.37434 6.64417C9.57076 6.59993 9.76777 6.55894 9.96508 6.5203C10.0208 6.50969 10.0795 6.50939 10.1364 6.51087C10.1969 6.51263 10.2479 6.54183 10.283 6.5905C10.3125 6.6312 10.3379 6.67485 10.3609 6.71938C10.4266 6.84738 10.4898 6.97656 10.5546 7.10485C10.5732 7.14142 10.5921 7.1777 10.6127 7.21309C10.6517 7.27945 10.7251 7.32015 10.8018 7.31455C10.8062 7.31425 10.8103 7.31396 10.8145 7.31307C10.9711 7.29184 11.1271 7.26765 11.284 7.24937C11.3622 7.23993 11.4418 7.23905 11.5205 7.23757C11.6143 7.2358 11.7069 7.22961 11.7995 7.21457C11.8771 7.20189 11.9567 7.19658 12.0355 7.19599C12.3446 7.19392 12.6537 7.19451 12.9627 7.19569C13.0273 7.19599 13.0931 7.19599 13.1559 7.20808C13.2768 7.23108 13.3984 7.23521 13.5205 7.23846C13.6066 7.24082 13.6921 7.25261 13.7776 7.26058C13.8493 7.26736 13.9207 7.27355 13.992 7.28181C14.0705 7.29066 14.1487 7.30275 14.2271 7.31042C14.2811 7.31573 14.3297 7.29508 14.3572 7.24907C14.405 7.16915 14.4501 7.08686 14.4884 7.00192C14.5418 6.88425 14.5975 6.76775 14.6636 6.65627C14.6784 6.63149 14.6919 6.60613 14.7078 6.58224C14.7379 6.538 14.7807 6.51146 14.8341 6.51028C14.8839 6.5091 14.9352 6.50939 14.9839 6.51912C15.1812 6.55805 15.3779 6.60023 15.5746 6.6427C15.6941 6.66836 15.8129 6.69697 15.9318 6.72469C15.9669 6.73295 16.002 6.74091 16.0362 6.75094C16.6084 6.92082 17.1773 7.10013 17.7262 7.33667C17.7922 7.36498 17.8598 7.39005 17.9255 7.41866C18.0196 7.45995 18.0942 7.52395 18.1573 7.60594C18.2538 7.73187 18.3355 7.86695 18.4178 8.00173C18.5452 8.21025 18.6755 8.41729 18.7938 8.63082C18.9436 8.90098 19.1023 9.16671 19.2306 9.44807C19.4152 9.8536 19.5987 10.2597 19.752 10.6782C19.8759 11.0156 19.9794 11.3595 20.0753 11.706C20.1614 12.0181 20.2304 12.3337 20.2973 12.6501C20.3268 12.7902 20.3442 12.9333 20.3664 13.0751C20.3926 13.2456 20.4189 13.4158 20.4433 13.5865C20.4507 13.6361 20.4522 13.6865 20.4557 13.7366C20.459 13.7868 20.4545 13.8387 20.4652 13.8871C20.5026 14.0572 20.4994 14.2298 20.4994 14.4023C20.4997 14.5318 20.5091 14.6598 20.5265 14.7887C20.5545 14.9957 20.5557 15.206 20.528 15.4124Z" fill="white"/>
</svg>
