<svg width="25" height="25" viewBox="0 0 25 25" fill="none" xmlns="http://www.w3.org/2000/svg">
<path d="M4.42365 0L4.42453 0.000884789L0 4.42542V25H20.7159L25 20.7156V0H4.42365ZM20.7241 7.70975C20.7182 7.7189 20.7123 7.72775 20.7061 7.73659C20.6831 7.76874 20.6607 7.80089 20.6374 7.83303C20.2749 8.33117 19.8547 8.77415 19.371 9.15668C19.3179 9.19885 19.263 9.23926 19.2091 9.28084C19.1979 9.28969 19.1878 9.30001 19.1772 9.30945C19.1713 9.31447 19.1681 9.32036 19.1681 9.32803C19.1678 9.34956 19.1666 9.37109 19.1672 9.39233C19.1769 9.65747 19.1713 9.92261 19.1616 10.1878C19.1598 10.2379 19.1548 10.2877 19.1513 10.3379C19.1495 10.3594 19.1462 10.3806 19.1454 10.4022C19.1421 10.5024 19.1291 10.6021 19.1179 10.7018C19.1082 10.7906 19.0996 10.88 19.0837 10.9681C19.0743 11.0212 19.0675 11.0743 19.0592 11.1277C19.0392 11.261 19.0061 11.4326 18.9772 11.5713C18.9451 11.7255 18.9082 11.8786 18.8687 12.0311C18.8254 12.1974 18.7773 12.3626 18.7245 12.5262C18.5717 13.0008 18.3838 13.4612 18.16 13.9068C17.804 14.6146 17.3687 15.2691 16.8476 15.8657C16.2323 16.5703 15.5245 17.164 14.7193 17.6403C14.1902 17.9532 13.6334 18.2042 13.05 18.3971C12.7817 18.4859 12.5091 18.5611 12.2331 18.623C12.0514 18.6637 11.8691 18.7 11.6854 18.7298C11.4866 18.7619 11.3872 18.7732 11.2174 18.7947C11.1 18.8097 10.982 18.8139 10.8646 18.8292C10.8611 18.8298 10.8575 18.8301 10.854 18.8304C10.6894 18.8374 10.5254 18.8534 10.3606 18.8543C10.1993 18.8551 10.0382 18.8554 9.87719 18.8551C9.77338 18.8548 9.66956 18.8516 9.56604 18.8422C9.52682 18.8389 9.4873 18.8374 9.44807 18.8357C9.39439 18.8333 9.34071 18.8298 9.28733 18.8224C9.27318 18.8206 9.25902 18.8189 9.24457 18.818C9.09445 18.8097 8.94551 18.7867 8.79657 18.7675C8.69364 18.7543 8.5913 18.736 8.48925 18.718C8.36568 18.6962 8.24299 18.6714 8.12059 18.6446C7.96339 18.6104 7.80708 18.5717 7.65195 18.5284C7.19245 18.4007 6.74563 18.2379 6.31208 18.0388C5.95699 17.876 5.61339 17.6914 5.28219 17.484C5.26715 17.4746 5.2524 17.4643 5.23795 17.4539C5.23205 17.4495 5.23146 17.4424 5.23647 17.4354C5.23824 17.433 5.24267 17.4312 5.24591 17.4309C5.25653 17.4303 5.26744 17.43 5.27776 17.4306C5.37804 17.4377 5.47802 17.4451 5.578 17.4513C5.62431 17.4542 5.67091 17.4563 5.7175 17.4569C5.8284 17.4581 5.93959 17.4587 6.05048 17.4584C6.15783 17.4584 6.26548 17.4554 6.37225 17.4442C6.39024 17.4424 6.40794 17.4413 6.42593 17.4404C6.55835 17.4348 6.68959 17.4168 6.82113 17.4003C6.97037 17.3814 7.11872 17.3563 7.26559 17.325C7.74662 17.2224 8.20347 17.0776 8.69718 16.8437C9.103 16.6514 9.48405 16.4184 9.84151 16.1462C9.85271 16.1374 9.86392 16.1285 9.87424 16.1185C9.87955 16.1132 9.87926 16.1055 9.8769 16.0987C9.87424 16.0917 9.86893 16.0881 9.86038 16.0878C9.84622 16.0869 9.83207 16.0855 9.81762 16.0852C9.63446 16.0799 9.45456 16.0492 9.27524 16.0135C8.6786 15.8743 8.16011 15.5929 7.72332 15.1617C7.51038 14.9515 7.33136 14.7152 7.18537 14.4542C7.0907 14.2849 7.01107 14.1088 6.95031 13.9245C6.94707 13.9145 6.9453 13.9039 6.94264 13.8935C6.94058 13.8853 6.95237 13.8714 6.96093 13.8717C6.97538 13.8726 6.98983 13.872 7.00369 13.8741C7.25615 13.9124 7.51009 13.9198 7.76432 13.9062C7.84306 13.9021 7.92122 13.8918 7.99938 13.8812C8.0737 13.8711 8.14802 13.8584 8.22146 13.8422C8.24918 13.836 8.2769 13.8284 8.30433 13.821C8.31436 13.8183 8.31642 13.813 8.31112 13.8062C8.30905 13.8036 8.30758 13.7998 8.30463 13.7983C8.29519 13.7936 8.28575 13.7877 8.27543 13.7853C8.1843 13.7658 8.09523 13.7393 8.00675 13.7098C7.15558 13.4264 6.5032 12.8194 6.14102 12.0771C6.04311 11.8768 5.96731 11.6686 5.91216 11.4527C5.89004 11.3663 5.87293 11.2784 5.85819 11.1899C5.82958 11.0197 5.81513 10.8487 5.81572 10.6765C5.81572 10.6658 5.81513 10.6546 5.82191 10.6452C5.82574 10.6399 5.83194 10.6358 5.8399 10.6369C5.8576 10.6399 5.87293 10.6493 5.88886 10.6579C5.98383 10.708 6.08115 10.7531 6.18084 10.7935C6.36723 10.8687 6.55894 10.926 6.75595 10.9649C6.86508 10.9864 6.97449 11.0044 7.08539 11.0118C7.12461 11.0144 7.16325 11.0242 7.20277 11.02C7.20572 11.0197 7.21014 11.018 7.21103 11.0156C7.21457 11.0085 7.21339 11.0012 7.20808 10.9956C7.20306 10.9903 7.19776 10.9858 7.19186 10.9817C7.16915 10.9646 7.14555 10.9478 7.12284 10.9307C6.74415 10.6473 6.44215 10.2975 6.21741 9.88132C6.08735 9.64066 5.98943 9.38761 5.92514 9.12129C5.89653 9.00302 5.875 8.88328 5.85848 8.76236C5.83518 8.5913 5.83076 8.41994 5.83489 8.24771C5.83607 8.19757 5.83872 8.14743 5.84108 8.09729C5.84314 8.05423 5.84727 8.01176 5.85376 7.969C5.86379 7.90529 5.87028 7.84129 5.88149 7.77759C5.94283 7.43223 6.05874 7.10662 6.22921 6.80049C6.23629 6.7878 6.24454 6.7763 6.25221 6.76421C6.25693 6.75684 6.27463 6.75418 6.28023 6.76008C6.29262 6.77306 6.3053 6.78574 6.31651 6.79931C6.46309 6.97567 6.61498 7.14762 6.77394 7.31307C7.457 8.02444 8.23473 8.60988 9.10772 9.06849C9.49496 9.272 9.89489 9.446 10.3078 9.59081C10.595 9.69139 10.8864 9.7781 11.1825 9.84917C11.4545 9.91465 11.5875 9.93647 11.7494 9.96891C11.863 9.98366 11.9753 10.0084 12.0895 10.0193C12.1773 10.037 12.267 10.0426 12.3558 10.0521C12.4979 10.0677 12.6407 10.0828 12.784 10.0854C12.7946 10.0854 12.8055 10.0845 12.8162 10.0842C12.8312 10.0836 12.8442 10.0701 12.8418 10.0568C12.8371 10.0285 12.8315 10.0005 12.8271 9.97216C12.8224 9.94414 12.8182 9.91553 12.8144 9.88722C12.7988 9.77721 12.784 9.6672 12.7802 9.55601C12.7755 9.4233 12.7758 9.29087 12.7805 9.15815C12.784 9.06142 12.7961 8.96527 12.8103 8.86971C12.828 8.74909 12.853 8.63023 12.8843 8.51226C12.9695 8.19108 13.1008 7.88996 13.2816 7.61184C13.6777 7.00222 14.2197 6.57516 14.9022 6.32742C15.047 6.27492 15.1957 6.2357 15.347 6.20532C15.4702 6.18084 15.5944 6.16698 15.7189 6.15253C15.7472 6.14899 15.7761 6.14869 15.8047 6.14751C15.905 6.14397 16.0052 6.14397 16.1052 6.14663C16.1698 6.1484 16.2341 6.15194 16.2981 6.16108C16.3583 6.16963 16.4187 6.17465 16.4792 6.18438C16.6741 6.21564 16.8644 6.26401 17.0502 6.33096C17.4985 6.49258 17.891 6.74238 18.2281 7.07949C18.2485 7.09954 18.2685 7.11989 18.2898 7.13907C18.3007 7.14909 18.3148 7.15263 18.3299 7.14968C18.534 7.11046 18.7351 7.06061 18.9339 7.00015C19.3772 6.86478 19.8007 6.68281 20.2044 6.45542C20.2325 6.43949 20.2608 6.42445 20.2897 6.41C20.2968 6.40646 20.3038 6.41029 20.3077 6.41649C20.3094 6.41914 20.3115 6.42298 20.3109 6.42563C20.3071 6.44333 20.3038 6.46102 20.2979 6.47783C20.1378 6.91846 19.8968 7.30836 19.5683 7.64369C19.4046 7.81062 19.2247 7.9575 19.0289 8.0852C19.0112 8.0967 18.9905 8.10555 18.9784 8.12442C18.9767 8.12708 18.9761 8.1315 18.9769 8.13475C18.9775 8.13681 18.9814 8.13888 18.984 8.13976C18.9873 8.14065 18.9911 8.14153 18.9946 8.14094C19.1474 8.12207 19.299 8.09759 19.45 8.0675C19.8659 7.98463 20.2679 7.85781 20.6586 7.69471C20.6752 7.68793 20.6917 7.68085 20.7076 7.67289C20.7126 7.67023 20.7164 7.66522 20.7209 7.66109C20.733 7.67643 20.7347 7.69294 20.7241 7.70975Z" fill="white"/>
</svg>
