<svg width="25" height="25" viewBox="0 0 25 25" fill="none" xmlns="http://www.w3.org/2000/svg">
<path fill-rule="evenodd" clip-rule="evenodd" d="M0 4.41016L4.42188 0H25V20.7031L20.6953 25H0V4.41016ZM6.58938 8.81437C6.72687 8.93812 6.7975 9.12 6.77875 9.30437V15.9344C6.81938 16.1731 6.74437 16.4175 6.57562 16.5919L5 18.5031V18.7556H9.4675V18.5031L7.89187 16.5919C7.7225 16.4181 7.6425 16.175 7.675 15.9344V10.2006L11.5969 18.7556H12.0519L15.42 10.2006V17.0194C15.42 17.2013 15.42 17.2362 15.3013 17.355L14.0894 18.5312V18.7831H19.9719V18.5312L18.8025 17.3831C18.6994 17.3044 18.6481 17.175 18.6694 17.0475V8.61125C18.6481 8.48312 18.6994 8.35375 18.8025 8.275L20 7.12687V6.875H15.8544L12.8994 14.2469L9.53813 6.875H5.18937V7.12687L6.58938 8.81437Z" fill="white"/>
</svg>
