<svg width="25" height="25" viewBox="0 0 25 25" fill="none" xmlns="http://www.w3.org/2000/svg">
<path d="M4.42229 0L0.0015025 4.42078L0 4.41928V25H20.6935L25 20.6935V0H4.42229ZM19.4906 14.3967C19.4905 14.4334 19.4908 14.4701 19.4801 14.506C19.473 14.5297 19.475 14.5547 19.4749 14.5791C19.474 14.7079 19.4734 14.8366 19.4726 14.9654C19.4725 14.9868 19.4729 15.0083 19.4718 15.0297C19.471 15.045 19.47 15.0606 19.4659 15.0751C19.4573 15.1051 19.4564 15.1356 19.4562 15.1663C19.4556 15.2459 19.4548 15.3256 19.4542 15.4053C19.4539 15.436 19.4533 15.4665 19.4438 15.4963C19.4382 15.5139 19.4381 15.5326 19.4378 15.5509C19.4371 15.5908 19.4365 15.6306 19.436 15.6705C19.4356 15.6982 19.4341 15.7255 19.4255 15.7522C19.4188 15.7729 19.4192 15.7946 19.4187 15.8159C19.4179 15.8528 19.416 15.8891 19.4059 15.9251C19.4003 15.9454 19.401 15.9676 19.3999 15.989C19.3987 16.0135 19.3973 16.0379 19.3896 16.0615C19.3837 16.0791 19.3824 16.0975 19.3814 16.1159C19.3804 16.1344 19.3777 16.1524 19.3721 16.1701C19.3694 16.1789 19.3667 16.1879 19.3659 16.1969C19.363 16.2306 19.3573 16.2634 19.3498 16.2965C19.3423 16.3291 19.3389 16.3629 19.3292 16.3952C19.3224 16.4594 19.3015 16.5206 19.2871 16.5832C19.2729 16.6459 19.2553 16.7078 19.2342 16.7686C19.2263 16.7917 19.2202 16.8155 19.2138 16.8391C19.2016 16.8834 19.1886 16.9278 19.171 16.97C19.1417 17.0408 19.1195 17.1143 19.089 17.1846C19.078 17.2099 19.0679 17.2355 19.0562 17.2604C19.0391 17.2963 19.0212 17.3318 19.0078 17.3695C18.9965 17.4013 18.9803 17.4311 18.9622 17.4596C18.9523 17.4751 18.9419 17.4905 18.9341 17.507C18.9043 17.571 18.8661 17.6304 18.831 17.6913C18.8172 17.7152 18.8018 17.7381 18.7865 17.761C18.7576 17.8043 18.728 17.8472 18.6991 17.8905C18.6803 17.9185 18.6618 17.9466 18.6381 17.9709C18.6275 17.9818 18.6193 17.995 18.6099 18.0071C18.5987 18.0215 18.5876 18.0361 18.5759 18.0503C18.5681 18.0599 18.5581 18.0677 18.5517 18.078C18.5219 18.125 18.4814 18.1627 18.4433 18.2025C18.4136 18.2334 18.3812 18.2619 18.3592 18.2994C18.3212 18.3393 18.285 18.3811 18.2399 18.4136C18.225 18.4243 18.2111 18.4365 18.1977 18.449C18.1732 18.472 18.1495 18.4961 18.1252 18.5194C18.101 18.5428 18.0775 18.567 18.048 18.5843C18.0402 18.589 18.0331 18.5952 18.0264 18.6013C17.9745 18.6492 17.9169 18.6899 17.8584 18.729C17.8253 18.7513 17.7949 18.777 17.762 18.7993C17.7139 18.8322 17.6624 18.8593 17.6135 18.891C17.5801 18.9126 17.5457 18.9328 17.5106 18.9514C17.4565 18.9801 17.4015 19.0073 17.3466 19.0345C17.3137 19.0508 17.2813 19.0684 17.2457 19.0786C17.237 19.0811 17.2286 19.0855 17.2204 19.0895C17.132 19.1321 17.0398 19.1654 16.9471 19.197C16.8891 19.2167 16.831 19.2361 16.7728 19.2552C16.7379 19.2665 16.7023 19.2757 16.6668 19.285C16.6283 19.295 16.591 19.3089 16.5518 19.3171C16.5159 19.3247 16.4811 19.3374 16.4452 19.3442C16.4061 19.3515 16.3674 19.3609 16.3283 19.3676C16.3071 19.3712 16.2861 19.3745 16.2654 19.3802C16.2507 19.3841 16.2352 19.3851 16.2201 19.3872C16.2049 19.3894 16.1893 19.3897 16.1748 19.3939C16.151 19.4007 16.1272 19.4053 16.1025 19.4062C16.0964 19.4063 16.0901 19.4063 16.0842 19.4078C16.0427 19.419 16.0004 19.4255 15.9573 19.426C15.9543 19.426 15.9512 19.4264 15.9482 19.4274C15.9008 19.4428 15.8517 19.442 15.8028 19.4432C15.7844 19.4436 15.7659 19.4442 15.7482 19.4498C15.7215 19.4583 15.6942 19.4599 15.6664 19.4603C15.6389 19.4605 15.6114 19.4612 15.5837 19.4614C15.5531 19.4618 15.5225 19.4627 15.4928 19.4721C15.4722 19.4786 15.4505 19.478 15.429 19.4782C15.3585 19.4789 15.2881 19.4795 15.2176 19.4801C15.187 19.4803 15.1564 19.4808 15.1266 19.49C15.1029 19.4973 15.0781 19.4962 15.0536 19.4964C14.9495 19.4972 14.8453 19.4978 14.7412 19.4985C14.7135 19.4987 14.686 19.4988 14.6583 19.4988C14.6307 19.4988 14.6033 19.5002 14.5765 19.5082C14.5588 19.5134 14.5403 19.5143 14.5219 19.5144C14.4943 19.5146 14.4668 19.5148 14.4391 19.5148C13.7866 19.5156 13.134 19.5164 12.4813 19.5173C11.8318 19.5164 11.1822 19.5156 10.5326 19.5148C10.5051 19.5147 10.4775 19.5145 10.4499 19.5144C10.4315 19.5142 10.4131 19.5132 10.3953 19.5078C10.3655 19.4987 10.3349 19.4989 10.3043 19.4987C10.1817 19.4981 10.0592 19.4973 9.93656 19.4965C9.89983 19.4963 9.86311 19.4967 9.8273 19.4856C9.80668 19.4791 9.78489 19.4803 9.76344 19.4801C9.69599 19.4795 9.62863 19.479 9.56119 19.4785C9.52746 19.4781 9.49407 19.4774 9.46102 19.4679C9.44366 19.463 9.42471 19.4628 9.40643 19.462C9.37588 19.4608 9.34516 19.4609 9.31452 19.4604C9.28389 19.4599 9.25351 19.4588 9.22362 19.4498C9.20918 19.4455 9.19349 19.4445 9.1783 19.4436C9.15384 19.4422 9.12922 19.4427 9.10476 19.4412C9.08957 19.4404 9.07387 19.4397 9.05943 19.4354C9.03264 19.4275 9.00543 19.4244 8.9778 19.4236C8.95626 19.4231 8.93523 19.4198 8.91452 19.4136C8.90284 19.4102 8.89057 19.408 8.87846 19.4069C8.851 19.4047 8.82379 19.4022 8.79708 19.3937C8.78281 19.389 8.76695 19.3893 8.75175 19.3871C8.73664 19.385 8.72104 19.3842 8.7066 19.3799C8.66536 19.3677 8.62162 19.3678 8.58105 19.3529C8.51386 19.3453 8.45017 19.3218 8.38406 19.3093C8.32629 19.2888 8.26611 19.2765 8.20801 19.2573C8.13239 19.2323 8.05626 19.2087 7.98164 19.1811C7.92997 19.1621 7.87897 19.141 7.8268 19.1233C7.81235 19.1184 7.79875 19.111 7.78481 19.1047C7.76811 19.097 7.752 19.0876 7.73472 19.0816C7.6505 19.0519 7.57396 19.0063 7.49399 18.9677C7.42179 18.9216 7.34349 18.8856 7.27329 18.8359C7.25593 18.8235 7.23673 18.8137 7.21845 18.8025C7.20801 18.7961 7.19675 18.7906 7.18756 18.7827C7.15493 18.7547 7.1177 18.7331 7.08322 18.7077C7.0389 18.675 6.99299 18.6443 6.95275 18.6065C6.94825 18.6023 6.94399 18.5977 6.93882 18.5945C6.88381 18.5598 6.8409 18.5114 6.79432 18.4672C6.78314 18.4567 6.77237 18.4457 6.76152 18.435C6.74624 18.4199 6.73038 18.4056 6.7126 18.3933C6.67705 18.3688 6.64674 18.3385 6.62204 18.3029C6.60977 18.2851 6.59549 18.2693 6.58047 18.2539C6.55042 18.2234 6.52045 18.1927 6.49048 18.1619C6.46912 18.14 6.44758 18.1183 6.4318 18.0916C6.42721 18.0837 6.42112 18.0765 6.41486 18.0699C6.37296 18.025 6.33973 17.9733 6.302 17.9252C6.25275 17.8624 6.20935 17.7957 6.16653 17.7286C6.12863 17.6693 6.0909 17.6098 6.05935 17.5467C6.04424 17.5166 6.02913 17.4866 6.01052 17.4583C5.99883 17.4405 5.9884 17.4211 5.98147 17.4011C5.96937 17.3661 5.95284 17.3334 5.93631 17.3006C5.89491 17.2183 5.8616 17.1327 5.83164 17.0458C5.8177 17.0053 5.80376 16.9648 5.7874 16.925C5.77571 16.8969 5.76653 16.8674 5.75885 16.8378C5.75351 16.8171 5.74808 16.7964 5.74115 16.7761C5.70952 16.6832 5.68656 16.588 5.66419 16.4927C5.65726 16.4629 5.6475 16.4339 5.64483 16.4029C5.64215 16.3725 5.63063 16.3437 5.62629 16.3131C5.6207 16.2739 5.60885 16.2356 5.60693 16.1956C5.60651 16.1866 5.60275 16.1777 5.60092 16.1687C5.59791 16.1538 5.59357 16.1388 5.59274 16.1237C5.59073 16.09 5.58848 16.0565 5.57813 16.024C5.57454 16.0125 5.57421 15.9998 5.57371 15.9876C5.57254 15.9568 5.5697 15.9266 5.56085 15.8968C5.55659 15.8824 5.55643 15.8666 5.55568 15.8513C5.55451 15.83 5.55484 15.8084 5.55376 15.787C5.55301 15.7718 5.55342 15.7558 5.54883 15.7415C5.53656 15.7027 5.53723 15.6629 5.53648 15.6231C5.53614 15.6017 5.53573 15.5802 5.53556 15.5587C5.53531 15.525 5.53481 15.4914 5.52462 15.4586C5.5182 15.4379 5.51912 15.4161 5.51895 15.3947C5.5182 15.3119 5.51745 15.2291 5.51686 15.1464C5.51661 15.1157 5.51569 15.0852 5.50659 15.0554C5.49933 15.0317 5.50075 15.0068 5.50058 14.9824C5.49983 14.8843 5.49925 14.7861 5.49875 14.6881C5.4985 14.6452 5.49833 14.6023 5.49816 14.5593C5.49808 14.5287 5.49716 14.4982 5.48881 14.4682C5.48472 14.4537 5.48364 14.4381 5.48306 14.4228C5.48205 14.3952 5.4823 14.3676 5.4823 14.3401V10.625C5.4823 10.6036 5.48255 10.5821 5.48247 10.5607C5.48239 10.5331 5.48364 10.5056 5.49157 10.4788C5.49683 10.461 5.49775 10.4426 5.49791 10.4241C5.49816 10.3812 5.49833 10.3383 5.49858 10.2954C5.49925 10.1821 5.49992 10.0686 5.50067 9.95518C5.50075 9.93063 5.5005 9.90601 5.50768 9.88222C5.51569 9.85543 5.51669 9.82796 5.51686 9.80033C5.51745 9.71753 5.5182 9.63481 5.51895 9.55209C5.51912 9.52755 5.51845 9.50284 5.52563 9.47905C5.53372 9.45234 5.53523 9.42488 5.53539 9.39725C5.53573 9.36352 5.53656 9.3298 5.5369 9.29608C5.53723 9.26536 5.5389 9.23498 5.54775 9.20518C5.55209 9.19065 5.55275 9.17496 5.55359 9.15968C5.55493 9.13523 5.55476 9.11069 5.55584 9.08623C5.55634 9.07396 5.55626 9.06127 5.55968 9.04975C5.56937 9.01711 5.57312 8.98389 5.57412 8.95C5.57446 8.93781 5.57571 8.92521 5.57947 8.91377C5.58815 8.88715 5.59082 8.85985 5.59165 8.83222C5.59232 8.81068 5.59558 8.78957 5.60209 8.76895C5.60484 8.76027 5.60751 8.75109 5.60785 8.74207C5.60902 8.70501 5.61987 8.6697 5.62579 8.63356C5.63088 8.60326 5.63781 8.57362 5.64499 8.54391C5.65075 8.52012 5.65735 8.49641 5.66194 8.47245C5.66661 8.44841 5.66978 8.42429 5.67588 8.40042C5.68656 8.35885 5.6995 8.31795 5.71018 8.27654C5.73781 8.16962 5.77613 8.06619 5.80993 7.96127C5.83164 7.89416 5.85977 7.82955 5.88481 7.76377C5.93397 7.63456 6.00058 7.51361 6.06311 7.39082C6.08523 7.34725 6.11169 7.30576 6.13773 7.26436C6.15083 7.24357 6.16386 7.22287 6.17579 7.20142C6.18172 7.19073 6.18748 7.17963 6.19541 7.17045C6.22337 7.13773 6.24491 7.1005 6.27012 7.06578C6.29708 7.02871 6.32421 6.99165 6.35209 6.95518C6.38372 6.91394 6.41336 6.87095 6.4515 6.83506C6.45601 6.83089 6.46027 6.82621 6.46336 6.82104C6.48723 6.78097 6.52104 6.74958 6.55342 6.71711C6.64207 6.62813 6.73122 6.53957 6.82028 6.45092C6.8399 6.43147 6.8596 6.41235 6.88339 6.39775C6.89374 6.3914 6.90309 6.38322 6.91227 6.37513C6.93289 6.35685 6.95159 6.33589 6.97387 6.32003C7.01886 6.28815 7.06094 6.2525 7.10743 6.2227C7.15125 6.19457 7.18973 6.1586 7.23506 6.13297C7.27513 6.11035 7.31419 6.08623 7.35234 6.06068C7.38047 6.04182 7.4096 6.02521 7.43973 6.01002C7.50267 5.97838 7.56544 5.94633 7.62846 5.91486C7.73765 5.86043 7.73773 5.8606 7.87254 5.80868C7.9389 5.77663 8.01102 5.7596 8.07821 5.72947C8.10042 5.71945 8.12412 5.71177 8.14783 5.70626C8.18973 5.69658 8.23005 5.68222 8.27112 5.66987C8.35309 5.64508 8.43556 5.62187 8.52028 5.60818C8.5293 5.60668 8.53815 5.60401 8.54708 5.60175C8.57972 5.59357 8.6121 5.58422 8.64508 5.57746C8.67504 5.57137 8.70568 5.56928 8.73506 5.55977C8.74649 5.55609 8.75927 5.55659 8.77137 5.55501C8.78656 5.55301 8.80234 5.55301 8.81669 5.5485C8.84341 5.53998 8.87053 5.53731 8.89816 5.53606C8.91043 5.53556 8.92321 5.53581 8.93464 5.53222C8.97321 5.51978 9.01277 5.51803 9.05267 5.51686C9.06486 5.51653 9.07755 5.51603 9.08898 5.51227C9.12462 5.50075 9.16127 5.5 9.19808 5.49942C9.2318 5.49892 9.26519 5.49775 9.29816 5.48815C9.31553 5.48314 9.33447 5.48281 9.35275 5.48222C9.39249 5.48097 9.43239 5.48089 9.4722 5.48038C9.49675 5.48005 9.5212 5.47938 9.54499 5.47204C9.5687 5.46469 9.59324 5.46411 9.61778 5.46394C9.69741 5.46327 9.77713 5.46269 9.85676 5.46194C9.89958 5.4616 9.94274 5.46394 9.98422 5.4495C10.0056 5.44816 10.027 5.44591 10.0483 5.44574C10.1464 5.44474 10.2444 5.44424 10.3425 5.44382C10.4344 5.44341 10.5263 5.44316 10.6182 5.44291C10.6489 5.44282 10.6795 5.44274 10.7093 5.43372C10.727 5.4283 10.7455 5.42771 10.7639 5.42763C10.7854 5.42746 10.8068 5.4273 10.8283 5.4273C11.9344 5.4273 13.0404 5.4273 14.1465 5.42738C14.1679 5.42738 14.1894 5.42746 14.2109 5.42763C14.2293 5.4278 14.2477 5.4288 14.2654 5.43414C14.2952 5.44307 14.3259 5.44282 14.3566 5.44299C14.525 5.44366 14.6936 5.44441 14.8621 5.44524C14.8897 5.44533 14.9173 5.44558 14.9448 5.44591C14.9633 5.44608 14.9816 5.44691 14.9994 5.45234C15.0262 5.46035 15.0536 5.4616 15.0813 5.46177C15.167 5.46235 15.2528 5.46311 15.3386 5.46377C15.3724 5.46402 15.4058 5.46503 15.4388 5.47421C15.4563 5.47905 15.4751 5.47947 15.4934 5.48005C15.5363 5.4813 15.5792 5.48147 15.6221 5.48205C15.6436 5.4823 15.6649 5.48381 15.6856 5.49032C15.7063 5.49683 15.7276 5.49841 15.7492 5.49883C15.7706 5.49925 15.7921 5.49933 15.8134 5.50058C15.8287 5.50142 15.8445 5.50192 15.8588 5.50634C15.8886 5.51544 15.919 5.51745 15.9497 5.51811C15.9743 5.51861 15.9986 5.52078 16.0222 5.52846C16.028 5.53038 16.0341 5.53222 16.0401 5.53264C16.089 5.53564 16.1374 5.54199 16.1851 5.55376C16.2375 5.55518 16.2875 5.57129 16.3385 5.58072C16.3865 5.58957 16.4347 5.59825 16.482 5.61102C16.5263 5.62304 16.5705 5.63548 16.6154 5.64508C16.6425 5.65084 16.6684 5.65968 16.6948 5.66761C16.7387 5.68088 16.7817 5.69708 16.8269 5.70659C16.8477 5.71102 16.8684 5.71795 16.8879 5.72654C16.9468 5.75275 17.0086 5.77095 17.069 5.79299C17.0862 5.79925 17.1037 5.80534 17.1203 5.81311C17.1536 5.82871 17.1869 5.84399 17.2218 5.85584C17.2391 5.86177 17.2553 5.87087 17.2718 5.87905C17.3376 5.91169 17.4033 5.94483 17.4693 5.9773C17.5381 6.01119 17.6055 6.04725 17.6683 6.09165C17.7008 6.11461 17.738 6.12997 17.7699 6.15434C17.8013 6.17846 17.8348 6.20017 17.8668 6.22387C17.8963 6.24566 17.9291 6.26294 17.9557 6.2889C17.9945 6.31386 18.029 6.34416 18.0619 6.37621C18.0664 6.38047 18.0709 6.38489 18.076 6.38798C18.1211 6.41536 18.1564 6.45401 18.1933 6.49065C18.2824 6.5793 18.3709 6.66845 18.4594 6.7576C18.4831 6.78155 18.5072 6.80526 18.5245 6.83464C18.5291 6.84249 18.5355 6.84942 18.5417 6.85609C18.5625 6.87863 18.5836 6.90092 18.599 6.9278C18.6428 6.97521 18.6793 7.02805 18.7144 7.08205C18.7692 7.14483 18.8058 7.21953 18.8503 7.28907C18.8735 7.32513 18.8955 7.3621 18.9151 7.40008C18.96 7.48731 19.0038 7.57513 19.0465 7.66336C19.0639 7.69908 19.0782 7.73639 19.0924 7.77354C19.1164 7.83639 19.1434 7.89825 19.1635 7.96269C19.1781 8.00943 19.1957 8.05526 19.2103 8.102C19.2257 8.15175 19.2439 8.2005 19.2558 8.25142C19.2676 8.302 19.2866 8.35083 19.2972 8.40184C19.3078 8.45275 19.3169 8.50417 19.3311 8.55409C19.3437 8.5985 19.3457 8.64466 19.3593 8.68882C19.3655 8.70893 19.3616 8.73205 19.3675 8.75234C19.3779 8.78815 19.3801 8.82454 19.3836 8.86119C19.3861 8.8884 19.3944 8.91511 19.3983 8.94232C19.4018 8.96653 19.4027 8.99107 19.4047 9.01553C19.4191 9.05367 19.4177 9.09382 19.4185 9.13364C19.4192 9.16427 19.4201 9.19482 19.4298 9.22446C19.4356 9.24215 19.4356 9.26069 19.4359 9.27913C19.4365 9.31586 19.4371 9.35267 19.4376 9.38948C19.438 9.42012 19.4385 9.45075 19.4478 9.48047C19.4544 9.50117 19.4539 9.52287 19.4541 9.54432C19.4549 9.62396 19.4557 9.70367 19.4562 9.78339C19.4564 9.81102 19.4578 9.83848 19.4658 9.86528C19.4729 9.88907 19.4722 9.91377 19.4724 9.93823C19.473 10.0302 19.4736 10.1221 19.4742 10.2141C19.4745 10.2601 19.4747 10.3061 19.4747 10.352C19.4748 10.3888 19.4755 10.4254 19.4856 10.4614C19.4897 10.4759 19.4897 10.4917 19.4902 10.507C19.4909 10.5376 19.4907 10.5683 19.4907 10.5989C19.4911 11.6809 19.4913 12.7629 19.4915 13.8449C19.4915 14.0288 19.4909 14.2128 19.4906 14.3967Z" fill="white"/>
<path d="M16.0773 12.3328C16.0773 12.3113 16.0756 12.29 16.0692 12.2693C16.0628 12.2486 16.0614 12.2272 16.0611 12.2058C16.0606 12.1782 16.0601 12.1506 16.0591 12.1231C16.0586 12.1109 16.0584 12.0983 16.0553 12.0867C16.0473 12.0569 16.0408 12.0271 16.0415 11.9963C16.0424 11.9619 16.0263 11.9307 16.0243 11.897C16.0241 11.8939 16.0238 11.8909 16.0236 11.8878C16.0225 11.8664 16.0186 11.8456 16.013 11.8247C16.0035 11.7893 15.9951 11.7535 15.9881 11.7175C15.9768 11.66 15.9506 11.5487 15.9331 11.4952C15.8989 11.3906 15.8666 11.2853 15.8246 11.1832C15.7932 11.1069 15.7641 11.0296 15.726 10.9561C15.6965 10.899 15.6671 10.8418 15.6396 10.7837C15.6095 10.7199 15.5689 10.6621 15.5356 10.6002C15.4744 10.5124 15.4211 10.4191 15.3532 10.336C15.3358 10.3033 15.3072 10.2789 15.2879 10.2475C15.2668 10.2133 15.2355 10.1878 15.2093 10.1579C15.1992 10.1464 15.189 10.1349 15.1807 10.1221C15.1688 10.1041 15.155 10.0879 15.1398 10.0727C15.0577 9.99041 14.9755 9.90811 14.8931 9.82605C14.8823 9.81529 14.8713 9.8041 14.8585 9.79609C14.8295 9.77806 14.8061 9.75402 14.7813 9.73131C14.7632 9.71487 14.7454 9.69784 14.7258 9.6834C14.7084 9.6708 14.692 9.65719 14.6747 9.64459C14.6277 9.61045 14.5825 9.5738 14.534 9.54175C14.483 9.50802 14.4318 9.47455 14.381 9.44041C14.343 9.41479 14.301 9.39567 14.2635 9.36896C14.2512 9.36011 14.2366 9.35443 14.223 9.34742C14.1985 9.33482 14.1747 9.32113 14.1513 9.30652C14.1098 9.28065 14.0661 9.25811 14.0202 9.24083C13.9915 9.23006 13.9638 9.21737 13.9364 9.20377C13.8705 9.17113 13.8021 9.14459 13.7328 9.12038C13.6491 9.09116 13.5647 9.06387 13.4805 9.0359C13.4631 9.03014 13.4457 9.0243 13.4279 9.01979C13.3597 9.00268 13.2915 8.9859 13.2232 8.96929C13.2114 8.96646 13.1993 8.96387 13.1872 8.96295C13.1627 8.96103 13.1388 8.95711 13.115 8.95093C13.0884 8.94408 13.0605 8.94233 13.034 8.93557C13.01 8.92948 12.9862 8.92589 12.9615 8.92539C12.9309 8.9248 12.9007 8.9223 12.8709 8.91337C12.8565 8.90903 12.8408 8.90853 12.8256 8.90786C12.7949 8.90661 12.7644 8.90644 12.7337 8.90602C12.7092 8.9056 12.6848 8.90469 12.661 8.89742C12.6403 8.89116 12.619 8.88983 12.5975 8.88983C12.5241 8.88974 12.4506 8.88966 12.3772 8.88974C12.3588 8.88983 12.3403 8.88991 12.3226 8.89542C12.2929 8.90477 12.2624 8.9056 12.2317 8.90594C12.1981 8.90636 12.1645 8.90669 12.1308 8.90794C12.1156 8.90853 12.0999 8.90936 12.0855 8.9137C12.0557 8.92263 12.0254 8.92447 11.9948 8.92564C11.9795 8.92622 11.9633 8.92505 11.9493 8.92989C11.9141 8.94208 11.8766 8.9405 11.8414 8.9511C11.8207 8.95736 11.7995 8.95969 11.7785 8.9632C11.7545 8.96729 11.7309 8.97447 11.707 8.97906C11.6493 8.98991 11.5478 9.01362 11.4934 9.03131C11.3975 9.06262 11.3014 9.0935 11.2062 9.12706C11.1515 9.14634 11.0971 9.16704 11.0448 9.1925C11.0063 9.21128 10.9684 9.23106 10.9275 9.24467C10.9132 9.24943 10.8994 9.25694 10.8865 9.26512C10.8658 9.27831 10.844 9.28883 10.8216 9.29876C10.7965 9.30986 10.774 9.32639 10.7498 9.33941C10.7175 9.35677 10.6854 9.3743 10.6544 9.39417C10.6209 9.41554 10.5856 9.4339 10.5526 9.45636C10.4743 9.50969 10.3931 9.55878 10.3193 9.61863C10.2918 9.6329 10.2721 9.65777 10.2461 9.67363C10.2223 9.68816 10.2023 9.70694 10.1821 9.72572C10.1619 9.74442 10.143 9.76512 10.1205 9.78056C10.09 9.8016 10.0634 9.82664 10.0375 9.85252C9.97235 9.91737 9.9075 9.98232 9.84281 10.0474C9.81693 10.0735 9.79097 10.0993 9.77094 10.1306C9.76125 10.146 9.74757 10.1589 9.73504 10.1723C9.71635 10.1925 9.6969 10.212 9.68287 10.2361C9.67828 10.244 9.67211 10.251 9.66635 10.2581C9.59715 10.3422 9.57428 10.3726 9.51835 10.4563C9.49281 10.4944 9.46877 10.5336 9.44189 10.5708C9.41844 10.6032 9.40275 10.6401 9.38004 10.6727C9.35542 10.7082 9.33756 10.747 9.31786 10.7851C9.29824 10.8231 9.27921 10.8615 9.26009 10.8999C9.23689 10.9465 9.21318 10.9928 9.19123 11.04C9.17704 11.0705 9.16527 11.102 9.15308 11.1334C9.12746 11.1988 9.1 11.2636 9.07846 11.3307C9.05701 11.3977 9.03481 11.4644 9.01628 11.5323C9.00417 11.5765 8.9924 11.6208 8.97955 11.6649C8.97012 11.6973 8.97204 11.7319 8.95893 11.7635C8.95309 11.8151 8.93431 11.8645 8.93272 11.9169C8.92129 11.9645 8.91486 12.0129 8.91194 12.0619C8.91135 12.0709 8.90818 12.0798 8.90559 12.0886C8.90042 12.1064 8.89858 12.1246 8.89816 12.143C8.89741 12.1766 8.89683 12.2104 8.89608 12.244C8.89566 12.2624 8.89533 12.2809 8.88973 12.2986C8.88022 12.3282 8.87988 12.3589 8.87988 12.3895C8.87988 12.4752 8.87988 12.5609 8.87997 12.6467C8.87997 12.6773 8.88122 12.7077 8.88998 12.7376C8.89424 12.7521 8.89507 12.7677 8.89591 12.783C8.89716 12.8074 8.89724 12.8319 8.89758 12.8564C8.898 12.884 8.89958 12.9114 8.90826 12.938C8.91494 12.9586 8.91486 12.9802 8.91553 13.0017C8.91628 13.0292 8.91786 13.0566 8.92654 13.0832C8.9303 13.0948 8.93205 13.1071 8.93339 13.1192C8.93823 13.1648 8.95593 13.2083 8.95584 13.2548C8.95584 13.2607 8.9586 13.2666 8.96002 13.2725C8.99048 13.4005 9.02254 13.528 9.06636 13.6522C9.07345 13.6724 9.08005 13.6927 9.08697 13.713C9.12137 13.8145 9.15834 13.9149 9.20692 14.0107C9.21519 14.027 9.22186 14.0442 9.22829 14.0614C9.24549 14.1074 9.26711 14.1515 9.29273 14.1931C9.31368 14.2271 9.33271 14.2619 9.35074 14.2973C9.36744 14.3301 9.3858 14.3617 9.40617 14.3924C9.4282 14.4255 9.44949 14.459 9.46886 14.4938C9.49557 14.5421 9.53204 14.5839 9.56334 14.6291C9.58939 14.6668 9.61384 14.7058 9.64657 14.7385C9.65299 14.7449 9.65859 14.7525 9.66334 14.7603C9.67611 14.7813 9.69197 14.7998 9.70867 14.8179C9.71902 14.8291 9.7297 14.8404 9.73763 14.8533C9.75399 14.8797 9.77536 14.9014 9.7969 14.9232C9.87653 15.0037 9.95608 15.0842 10.0365 15.1641C10.0776 15.205 10.117 15.2481 10.1669 15.2791C10.1721 15.2824 10.1767 15.2867 10.1809 15.2912C10.2145 15.3271 10.2551 15.3549 10.294 15.3842C10.3404 15.4192 10.3859 15.4554 10.4344 15.4874C10.4778 15.516 10.5208 15.5453 10.5642 15.5739C10.6001 15.5973 10.6359 15.6208 10.6746 15.6394C10.6911 15.6473 10.7064 15.6576 10.7223 15.667C10.738 15.6762 10.7532 15.6867 10.7696 15.6949C10.8816 15.7512 10.992 15.8112 11.1094 15.856C11.1551 15.8735 11.2 15.8928 11.2462 15.9089C11.3212 15.9352 11.397 15.9594 11.4725 15.9843C11.487 15.9892 11.5015 15.9939 11.5164 15.9977C11.5816 16.0141 11.6466 16.031 11.7121 16.046C11.7538 16.0555 11.7959 16.0635 11.8378 16.071C11.8648 16.0758 11.8925 16.0758 11.9191 16.0845C11.9485 16.0941 11.9799 16.0897 12.0101 16.0941C12.0161 16.0949 12.0223 16.0958 12.0281 16.0978C12.0545 16.1074 12.0818 16.1089 12.1095 16.1094C12.1462 16.11 12.1826 16.1116 12.2186 16.1217C12.2358 16.1266 12.2549 16.1265 12.2731 16.1266C12.3405 16.1271 12.4078 16.1268 12.4751 16.1268C12.5455 16.1268 12.6159 16.1271 12.6862 16.1266C12.7045 16.1264 12.7236 16.1262 12.7408 16.1213C12.7768 16.111 12.8133 16.1102 12.8499 16.1093C12.8714 16.1088 12.8929 16.1088 12.9136 16.1021C12.9372 16.0946 12.9614 16.0919 12.9859 16.0912C13.0074 16.0907 13.0285 16.0882 13.0493 16.0821C13.0639 16.0778 13.0791 16.075 13.0943 16.0737C13.1187 16.0717 13.1426 16.0679 13.1665 16.0615C13.1929 16.0545 13.2205 16.0517 13.2473 16.0457C13.289 16.0362 13.3306 16.026 13.372 16.0154C13.4075 16.0064 13.4432 15.9978 13.4781 15.9865C13.5857 15.9517 13.6936 15.918 13.7987 15.8752C13.9361 15.8192 13.9368 15.8209 14.0503 15.7644C14.0832 15.748 14.1157 15.7309 14.1489 15.7152C14.2229 15.6802 14.3401 15.6096 14.4103 15.5628C14.5501 15.4694 14.5946 15.4431 14.7722 15.297C14.7769 15.2932 14.7817 15.2892 14.787 15.2862C14.8113 15.2725 14.8308 15.2529 14.8503 15.2335C14.9458 15.1386 15.0414 15.0437 15.1365 14.9483C15.1688 14.9159 15.202 14.884 15.2263 14.8443C15.2326 14.8341 15.242 14.8257 15.2502 14.8166C15.2708 14.794 15.2923 14.7725 15.3092 14.7465C15.3259 14.721 15.346 14.6977 15.3639 14.673C15.389 14.6382 15.412 14.6022 15.4389 14.5687C15.4579 14.5449 15.475 14.5191 15.4896 14.4923C15.5087 14.4574 15.5304 14.4241 15.5525 14.391C15.5729 14.3603 15.5909 14.3285 15.6077 14.2958C15.6218 14.2687 15.6353 14.2411 15.6515 14.2152C15.684 14.1631 15.7118 14.1089 15.733 14.0512C15.7405 14.0311 15.7501 14.0119 15.7597 13.9927C15.7966 13.9187 15.8261 13.8415 15.8535 13.7636C15.8799 13.6886 15.904 13.6127 15.9288 13.5372C15.9355 13.5168 15.9422 13.4964 15.9475 13.4756C15.9647 13.4075 15.9813 13.3392 15.9982 13.271C16.0063 13.2383 16.0065 13.2042 16.0183 13.1722C16.0214 13.1638 16.0217 13.1542 16.0223 13.145C16.0242 13.1175 16.0299 13.0907 16.0357 13.0637C16.0419 13.034 16.042 13.003 16.0455 12.9726C16.0465 12.9635 16.0492 12.9547 16.0518 12.9458C16.057 12.9281 16.0589 12.9099 16.0593 12.8915C16.0599 12.867 16.0605 12.8425 16.061 12.818C16.0614 12.7935 16.0623 12.769 16.0697 12.7453C16.0762 12.7246 16.0774 12.7033 16.0774 12.6818C16.0775 12.5655 16.0774 12.4491 16.0773 12.3328ZM14.8108 12.7129C14.8104 12.7374 14.8087 12.7617 14.8017 12.7855C14.7981 12.7972 14.7961 12.8094 14.7948 12.8215C14.7926 12.8427 14.7917 12.8642 14.7899 12.8855C14.7894 12.8916 14.7875 12.8975 14.7861 12.9034C14.7731 12.96 14.7629 13.0171 14.7492 13.0736C14.7259 13.1688 14.6921 13.2607 14.6618 13.3538C14.6356 13.4123 14.6162 13.4738 14.5855 13.5306C14.571 13.5575 14.5573 13.5849 14.5445 13.6127C14.5188 13.6685 14.4815 13.7175 14.4535 13.7719C14.4194 13.819 14.3919 13.8705 14.3534 13.9145C14.3232 13.9645 14.2788 14.0034 14.2469 14.0522C14.237 14.0673 14.2227 14.0797 14.2098 14.0928C14.1624 14.1407 14.1141 14.1875 14.0675 14.2362C14.0144 14.2917 13.9536 14.3377 13.8922 14.3833C13.8505 14.4143 13.8093 14.446 13.7654 14.474C13.6907 14.5215 13.6158 14.569 13.5356 14.6074C13.5135 14.6179 13.4916 14.6289 13.4699 14.6402C13.4127 14.6698 13.3523 14.6917 13.2922 14.714C13.2348 14.7352 13.1761 14.7524 13.1182 14.7722C13.0949 14.7801 13.071 14.7848 13.0473 14.7908C13.0236 14.7968 12.9999 14.8022 12.9759 14.8068C12.9339 14.8147 12.8919 14.8227 12.8502 14.8317C12.8261 14.837 12.8023 14.8414 12.7777 14.8418C12.747 14.8422 12.7168 14.8447 12.687 14.8536C12.6726 14.8579 12.6569 14.8588 12.6417 14.8589C12.5408 14.8594 12.4398 14.8593 12.3388 14.8593C12.3173 14.8593 12.296 14.8573 12.2754 14.8508C12.2577 14.8453 12.2395 14.8431 12.2211 14.8427C12.1843 14.8421 12.1476 14.8411 12.1125 14.8283C12.1068 14.8262 12.1004 14.8253 12.0944 14.8254C12.054 14.8262 12.0159 14.8134 11.9775 14.8039C11.9122 14.7878 11.8468 14.7727 11.7823 14.7532C11.7267 14.7362 11.6728 14.7145 11.6189 14.6931C11.545 14.6637 11.471 14.6347 11.4012 14.5961C11.3638 14.5754 11.3265 14.5544 11.2903 14.5316C11.2178 14.486 11.146 14.4396 11.0775 14.388C11.0384 14.3584 10.9992 14.3294 10.9648 14.2943C10.9627 14.2921 10.9605 14.2899 10.9579 14.2883C10.9029 14.2536 10.861 14.2043 10.815 14.1596C10.8062 14.1511 10.7979 14.1421 10.7891 14.1336C10.7626 14.108 10.7403 14.0791 10.7183 14.0496C10.6983 14.0227 10.6725 14.0002 10.6517 13.9739C10.6084 13.9192 10.5317 13.8074 10.4895 13.7404C10.4798 13.7249 10.4709 13.7088 10.4624 13.6925C10.4482 13.6654 10.4339 13.6385 10.417 13.6129C10.3969 13.5821 10.3813 13.5488 10.3678 13.5145C10.3601 13.4946 10.3524 13.4746 10.3433 13.4552C10.3107 13.3859 10.2844 13.3142 10.2591 13.2421C10.2439 13.1987 10.2346 13.1537 10.2223 13.1095C10.2124 13.0742 10.2064 13.0379 10.1968 13.0025C10.1895 12.9758 10.1835 12.9493 10.1818 12.9215C10.1809 12.9064 10.1777 12.8912 10.1735 12.8766C10.1675 12.8558 10.1657 12.8346 10.1643 12.8132C10.1631 12.7949 10.1633 12.776 10.1582 12.7587C10.1486 12.7257 10.1468 12.6925 10.1468 12.6587C10.1469 12.5608 10.1468 12.4629 10.1469 12.3649C10.1469 12.3373 10.1479 12.3099 10.1565 12.2832C10.1632 12.2625 10.1637 12.241 10.1641 12.2196C10.1647 12.1889 10.1679 12.1589 10.1766 12.1291C10.1835 12.1057 10.184 12.0806 10.1897 12.0569C10.1949 12.0362 10.1981 12.015 10.2025 11.9942C10.2105 11.9553 10.2197 11.9165 10.2313 11.8786C10.251 11.8143 10.2709 11.7498 10.2946 11.6869C10.3171 11.6269 10.3392 11.5665 10.3692 11.5094C10.3876 11.4742 10.4048 11.4382 10.4228 11.4028C10.4352 11.3782 10.4459 11.3524 10.4611 11.3296C10.4915 11.2837 10.5154 11.2338 10.5482 11.1894C10.5754 11.1526 10.6022 11.1154 10.6297 11.0786C10.6498 11.0518 10.6698 11.0246 10.6917 10.9992C10.7137 10.9738 10.7379 10.9503 10.7616 10.9263C10.7809 10.9066 10.7994 10.8864 10.8143 10.863C10.8243 10.8475 10.8374 10.8342 10.8531 10.8244C10.8793 10.808 10.901 10.7864 10.9229 10.765C10.9426 10.7458 10.9624 10.7267 10.9824 10.7078C10.9913 10.6993 11 10.6904 11.0099 10.6835C11.0627 10.6469 11.1128 10.6069 11.1664 10.5715C11.3599 10.4435 11.298 10.4817 11.4834 10.3876C11.5957 10.3306 11.7146 10.2909 11.8339 10.2525C11.8999 10.2397 11.9633 10.2155 12.0306 10.2087C12.0657 10.1973 12.102 10.1927 12.1388 10.1902C12.1478 10.1896 12.1568 10.1868 12.1655 10.1841C12.1862 10.1774 12.2074 10.1756 12.2289 10.1751C12.2503 10.1746 12.2717 10.1741 12.2931 10.1736C12.3115 10.1732 12.3298 10.1718 12.3475 10.1664C12.3712 10.159 12.3956 10.1576 12.4201 10.1576C12.4569 10.1576 12.4935 10.1576 12.5302 10.1575C12.5579 10.1575 12.5853 10.1585 12.612 10.1668C12.6297 10.1722 12.648 10.1733 12.6665 10.1737C12.6878 10.1741 12.7093 10.1744 12.7307 10.1752C12.7429 10.1757 12.7557 10.1751 12.7671 10.1785C12.8026 10.1893 12.8397 10.189 12.8755 10.1964C12.9382 10.2095 13.0012 10.2215 13.0634 10.2373C13.1376 10.2561 13.2105 10.279 13.2821 10.3055C13.3422 10.3279 13.4025 10.3502 13.4596 10.3801C13.4948 10.3984 13.5303 10.4165 13.5664 10.4333C13.6108 10.4539 13.7346 10.528 13.7794 10.5592C13.8169 10.5854 13.8534 10.6132 13.8902 10.6405C13.9001 10.6478 13.9086 10.657 13.9189 10.6633C13.9482 10.6808 13.9722 10.7043 13.9965 10.7276C14.0185 10.7488 14.0409 10.7693 14.0663 10.7869C14.0968 10.8079 14.1612 10.8729 14.1825 10.9036C14.1984 10.9264 14.2166 10.9468 14.2358 10.9665C14.2614 10.9928 14.2872 11.019 14.306 11.0509C14.3091 11.0562 14.3132 11.0609 14.3173 11.0654C14.3806 11.1328 14.4244 11.2142 14.4762 11.2897C14.49 11.3097 14.4995 11.3327 14.5108 11.3544C14.5263 11.3843 14.5413 11.4144 14.5603 11.4423C14.5705 11.4574 14.5795 11.4741 14.5853 11.4912C14.597 11.5262 14.6149 11.5584 14.6288 11.5923C14.6645 11.6801 14.7021 11.7672 14.7228 11.8603C14.7274 11.8811 14.7345 11.9014 14.7413 11.9218C14.749 11.9451 14.7546 11.9686 14.7579 11.9931C14.7613 12.0172 14.7693 12.0407 14.7734 12.0647C14.7769 12.0857 14.7791 12.1069 14.7851 12.1277C14.7893 12.1422 14.7915 12.1577 14.7924 12.1729C14.7941 12.2034 14.7965 12.2337 14.8049 12.2635C14.8098 12.2809 14.8103 12.2998 14.8106 12.318C14.8118 12.3854 14.8121 12.4528 14.8127 12.5174C14.812 12.5843 14.8114 12.6486 14.8108 12.7129Z" fill="white"/>
<path d="M17.3161 8.26533C17.3163 8.29905 17.3134 8.33202 17.3048 8.36516C17.2957 8.40055 17.2921 8.4372 17.2824 8.47275C17.2759 8.49646 17.2697 8.51992 17.2594 8.54229C17.2581 8.54504 17.2568 8.54779 17.2556 8.55063C17.243 8.57843 17.2368 8.60906 17.2201 8.6351C17.1937 8.67634 17.1669 8.71724 17.1394 8.75772C17.1309 8.77024 17.1198 8.78126 17.1092 8.7922C17.0814 8.82066 17.053 8.84845 17.0252 8.87692C16.9529 8.95054 16.8657 8.99979 16.77 9.03526C16.7241 9.05229 16.6778 9.06815 16.6293 9.07616C16.6001 9.08751 16.5697 9.08902 16.5389 9.0891C16.5144 9.08918 16.4899 9.0891 16.4655 9.0891V9.08952C16.4502 9.08952 16.4348 9.0896 16.4196 9.08952C16.3439 9.08885 16.3438 9.08935 16.2656 9.06982C16.1852 9.0497 16.1076 9.02149 16.0357 8.97975C15.9908 8.95363 15.9474 8.925 15.9109 8.8871C15.8854 8.86056 15.8591 8.83493 15.8328 8.80931C15.7864 8.7639 15.751 8.71073 15.7208 8.65347C15.6864 8.58828 15.6579 8.52092 15.638 8.44988C15.6329 8.4321 15.6284 8.41458 15.627 8.39613C15.6259 8.38085 15.6261 8.36491 15.6213 8.35072C15.6084 8.31199 15.6095 8.27226 15.6094 8.23253C15.6093 8.21725 15.6094 8.20189 15.6098 8.18662C15.6102 8.17744 15.6102 8.16809 15.6122 8.15924C15.6259 8.09973 15.6339 8.03888 15.6511 7.9802C15.6701 7.91517 15.6986 7.85432 15.7346 7.79706C15.7396 7.7893 15.7452 7.78195 15.7502 7.77436C15.8104 7.68271 15.8104 7.68279 15.8832 7.61151C15.9029 7.59214 15.9228 7.57345 15.9466 7.55892C15.9596 7.55108 15.9707 7.54023 15.9828 7.53088C15.9901 7.52528 15.9971 7.51902 16.005 7.51468C16.059 7.48572 16.1121 7.45525 16.1703 7.43514C16.2223 7.41711 16.2741 7.39858 16.3296 7.3939C16.3648 7.38063 16.4015 7.3808 16.4383 7.38088C16.4567 7.38096 16.4751 7.38113 16.4934 7.38088C16.5272 7.38055 16.5606 7.38155 16.5931 7.39298C16.6016 7.39599 16.6111 7.39716 16.6202 7.39766C16.645 7.39916 16.6679 7.40751 16.6915 7.41393C16.769 7.43489 16.8399 7.47061 16.9099 7.50859C16.9206 7.51435 16.9305 7.52178 16.9403 7.52904C16.9478 7.53438 16.9539 7.54164 16.9617 7.5464C17.0171 7.58054 17.0597 7.62895 17.105 7.67453C17.1202 7.68989 17.1298 7.70942 17.1435 7.72578C17.203 7.79773 17.2403 7.88112 17.2706 7.96818C17.2846 8.00858 17.2986 8.04914 17.3016 8.09246C17.3022 8.10148 17.3055 8.11033 17.3082 8.11909C17.3136 8.13687 17.3155 8.15507 17.3157 8.17351C17.3159 8.20406 17.3159 8.2347 17.3161 8.26533Z" fill="white"/>
</svg>
