<svg width="36" height="36" viewBox="0 0 36 36" fill="none" xmlns="http://www.w3.org/2000/svg">
<path d="M8.55649 6.3031C7.01576 6.93685 5.90607 8.3054 5.90607 9.95867V13.8714H4.37451V8.62687C4.37451 7.6349 4.8514 6.91848 5.53923 6.4868H5.5484C6.02529 6.17451 6.61224 6.00918 7.19001 6C7.19001 6 7.2267 6 7.23587 6C7.27255 6 7.31841 6.00918 7.37343 6.00918C7.49266 6.02755 7.64856 6.04592 7.83198 6.08266C8.08877 6.12859 8.34556 6.20207 8.55649 6.3031Z" fill="#F1AE71"/>
<path d="M6.88672 9.39753C7.19853 7.97388 8.64755 6.83496 10.5093 6.83496H25.3388C27.2555 6.83496 28.7871 7.94633 29.2181 9.39753H6.88672Z" fill="#F1AE71"/>
<path d="M29.3554 10.3813H6.82227V13.8716H29.3554V10.3813Z" fill="#F1AE71"/>
<path d="M31.8047 8.62687V13.8714H30.2732V10.2526C30.2732 8.50746 29.1268 7.05626 27.5127 6.36739C27.742 6.22962 28.0538 6.13777 28.3656 6.08266C28.5398 6.04592 28.6958 6.02755 28.815 6.00918C28.87 6.00918 28.9159 6 28.9434 6C28.9525 6 28.9892 6 28.9892 6C29.5578 6.00918 30.1264 6.16533 30.6033 6.45924C31.3095 6.89093 31.8047 7.61653 31.8047 8.62687Z" fill="#F1AE71"/>
<path d="M29.3554 20.4844V23.4143H6.82227V20.4844H14.4525V21.6692H21.7894V20.4844H29.3554Z" fill="#F1AE71"/>
<path d="M29.3554 24.4424H6.82227V27.005H29.3554V24.4424Z" fill="#F1AE71"/>
<path d="M31.805 20.4844H30.2734V27.0056H31.805V20.4844Z" fill="#F1AE71"/>
<path d="M5.90607 20.4844H4.37451V27.0056H5.90607V20.4844Z" fill="#F1AE71"/>
<path d="M32.9695 30.0001H3.34717L4.20924 28.0437H32.0341L32.9695 30.0001Z" fill="#F1AE71"/>
<path d="M3.45757 14.7898H15.3065C14.7746 15.4695 14.4536 16.3328 14.4536 17.2697V19.5659H3.45757C3.14576 19.5659 2.99902 19.3547 2.99902 19.2353V15.1204C2.99902 15.001 3.14576 14.7898 3.45757 14.7898Z" fill="#F1AE71"/>
<path d="M32.9977 15.1204V19.2444C33.0068 19.3363 32.9151 19.4833 32.7225 19.5384C32.6767 19.5567 32.6125 19.5659 32.5483 19.5659H21.7907V17.3156C21.7907 16.3604 21.4605 15.4695 20.9194 14.7898H32.5391C32.6125 14.7898 32.6675 14.799 32.7225 14.8174C32.9151 14.8725 32.9977 15.0286 32.9977 15.1204Z" fill="#F1AE71"/>
<path d="M20.2032 15.3604C20.0932 15.241 19.9831 15.1216 19.8823 15.0389L19.8547 15.0206L19.8364 14.993C19.763 14.9287 19.6805 14.8552 19.5796 14.7909C19.5246 14.745 19.4604 14.7083 19.387 14.6715C18.9927 14.4419 18.5525 14.3225 18.0939 14.3225C17.6354 14.3225 17.2135 14.4419 16.8283 14.6623C16.7549 14.6991 16.6907 14.745 16.6265 14.7909C16.5257 14.8552 16.434 14.9287 16.3422 15.0114C16.2414 15.1032 16.1405 15.2134 16.0304 15.3512C15.5994 15.9023 15.3701 16.582 15.3701 17.2708V20.7519H20.8727V17.3168C20.8727 16.6004 20.6343 15.9115 20.2032 15.3604ZM19.0385 19.8334H17.2043V16.1595H19.0385V19.8334Z" fill="#F1AE71"/>
</svg>
