<svg width="37" height="36" viewBox="0 0 37 36" fill="none" xmlns="http://www.w3.org/2000/svg">
<path d="M32.4957 12.677C32.5124 12.8181 32.3196 14.378 32.3196 15.0585C32.3196 15.1995 32.2945 15.3572 32.219 15.4816C31.9591 15.9712 30.9781 17.2574 30.8104 17.4648C31.2464 17.5976 31.4812 17.1578 31.8501 17.2905C31.6824 17.8216 31.5147 18.5601 31.2297 18.8671C30.8524 19.2903 30.1313 19.3152 29.5528 19.7218C30.2236 19.9458 30.5086 19.5392 30.9446 19.7799C30.6176 20.1947 30.3326 20.5764 30.0307 20.9498C29.863 21.149 29.6199 21.232 29.3264 21.232C29.1001 21.2237 28.8653 21.232 28.6389 21.2486C28.4964 21.2569 28.379 21.3149 28.3958 21.4643C28.597 21.622 28.924 21.622 29.0917 21.8709C28.4377 22.0285 27.7754 22.4849 27.2807 22.377C26.8112 22.2858 26.4758 21.7547 26.0902 21.3813C26.0902 21.149 26.2243 19.7799 26.0902 19.0082C26.0147 18.5601 25.5871 17.5063 25.52 17.5063C25.3104 17.5644 24.5558 17.8963 24.3127 17.9958C24.3714 18.6846 24.6229 23.2317 24.6565 23.9868C24.8996 24.244 25.9728 25.0738 26.3333 25.2646C26.7525 25.2481 27.2472 25.2232 27.8424 25.1983C27.5574 25.4638 27.2723 25.638 27.004 25.8455C26.5681 26.1857 26.1405 26.5508 25.7464 26.9159C24.8577 27.7042 23.3821 29.8948 22.6946 30.849C22.2921 31.3967 20.8836 34.334 20.783 34.5C20.7327 34.0436 20.4224 26.584 20.4224 26.3433C20.4224 25.8953 20.4057 25.4472 20.4811 24.9825C20.5566 24.5344 21.0177 22.6758 21.4034 22.2609C21.5459 22.1115 22.6107 20.5847 23.0299 19.9873C23.0635 19.9375 23.0383 19.8628 23.0383 19.7716C22.5185 19.7218 22.0238 19.7716 21.504 19.7633C20.8417 20.1781 20.1625 20.6013 19.5421 20.9996C19.2654 21.7298 19.2654 21.7298 18.9971 21.9124C18.7288 21.7298 18.7288 21.7298 18.4522 20.9996C17.8317 20.6013 17.1526 20.1781 16.4903 19.7633C15.9704 19.7716 15.4758 19.7218 14.956 19.7716C14.956 19.8628 14.9308 19.9375 14.9643 19.9873C15.3835 20.5847 16.4483 22.1115 16.5909 22.2609C16.9765 22.6758 17.4377 24.5344 17.5131 24.9825C17.5886 25.4472 17.5718 25.8953 17.5718 26.3433C17.5718 26.584 17.2616 34.0436 17.2113 34.5C17.1107 34.334 15.7021 31.3967 15.2997 30.849C14.6122 29.8948 13.1366 27.7042 12.2479 26.9159C11.8538 26.5508 11.4262 26.1857 10.9902 25.8455C10.7219 25.638 10.4369 25.4638 10.1518 25.1983C10.7471 25.2232 11.2418 25.2481 11.661 25.2646C12.0215 25.0738 13.0947 24.244 13.3378 23.9868C13.3713 23.2317 13.6229 18.6846 13.6816 17.9958C13.4384 17.8963 12.6838 17.5644 12.4742 17.5063C12.4072 17.5063 11.9796 18.5601 11.9041 19.0082C11.77 19.7799 11.9041 21.149 11.9041 21.3813C11.5184 21.7547 11.1831 22.2858 10.7136 22.377C10.2189 22.4849 9.55654 22.0285 8.90257 21.8709C9.07026 21.622 9.39724 21.622 9.59846 21.4643C9.61523 21.3149 9.49785 21.2569 9.35532 21.2486C9.12894 21.232 8.89419 21.2237 8.66781 21.232C8.37437 21.232 8.13123 21.149 7.96354 20.9498C7.66171 20.5764 7.37665 20.1947 7.04967 19.7799C7.48564 19.5392 7.77071 19.9458 8.44144 19.7218C7.86293 19.3152 7.14189 19.2903 6.7646 18.8671C6.47954 18.5601 6.31186 17.8216 6.14417 17.2905C6.51308 17.1578 6.74784 17.5976 7.18381 17.4648C7.01613 17.2574 6.03518 15.9712 5.77527 15.4816C5.69981 15.3572 5.67466 15.1995 5.67466 15.0585C5.67466 14.378 5.48182 12.8181 5.49859 12.677C5.96811 12.9674 6.06033 13.4321 6.42924 13.7723C6.53823 13.5732 6.0268 11.1088 5.80881 10.0466C5.75012 9.73133 5.81719 9.42431 5.9178 9.1256C6.08549 8.57795 6.53823 7.44946 6.8736 6.935C7.05805 7.48265 7.50241 8.71071 7.67848 9.03432C7.82101 8.7688 7.77909 8.69412 7.64494 8.18796C7.50241 7.60712 7.11674 6.32097 7.09159 6.13012C7.07482 6.02225 7.09997 5.89779 7.15028 5.79821C7.38503 5.34184 7.61141 4.87717 7.88808 4.43739C8.01385 4.24654 8.23184 4.08889 8.43306 3.93953C8.66781 3.77357 8.92772 3.63251 9.25471 3.43337C9.61523 2.84423 10.0177 2.18871 10.4369 1.5C10.4956 1.54979 10.5207 1.60787 10.5291 1.67425C10.6884 2.99359 10.1267 4.36271 9.53139 5.51609C9.4727 5.64056 9.40562 5.76502 9.35532 5.88949C9.30501 6.03885 9.27986 6.18821 9.25471 6.33757C9.06187 7.64031 9.48108 9.00113 9.84998 10.2209C9.90867 10.42 9.97575 10.6441 10.1267 10.8017C10.6716 11.366 11.2501 11.9136 11.7783 12.4281C12.3988 12.677 12.9941 12.594 13.5977 12.5857C13.8073 12.4198 14.0169 12.2621 14.2349 12.0879C14.4948 12.2621 14.7296 12.4281 14.956 12.5857C15.0901 12.5277 15.1907 12.4862 15.2997 12.4364C15.4758 12.0298 15.8195 11.7228 16.1549 11.4158C16.5993 11.0092 17.0855 10.6275 17.5383 10.2292C18.033 9.78112 18.4689 9.29155 18.6534 8.67752C18.6953 8.54476 19.299 8.54476 19.3409 8.67752C19.5253 9.29155 19.9613 9.78112 20.456 10.2292C20.9087 10.6275 21.395 11.0092 21.8394 11.4158C22.1747 11.7228 22.5185 12.0298 22.6946 12.4364C22.8036 12.4862 22.9042 12.5277 23.0383 12.5857C23.2647 12.4281 23.4994 12.2621 23.7593 12.0879C23.9773 12.2621 24.1869 12.4198 24.3965 12.5857C25.0002 12.594 25.5955 12.677 26.2159 12.4281C26.7441 11.9136 27.3226 11.366 27.8676 10.8017C28.0185 10.6441 28.0856 10.42 28.1443 10.2209C28.5132 9.00113 28.9324 7.64031 28.7396 6.33757C28.7144 6.18821 28.6893 6.03885 28.6389 5.88949C28.5886 5.76502 28.5216 5.64056 28.4629 5.51609C27.8676 4.36271 27.3059 2.99359 27.4652 1.67425C27.4735 1.60787 27.4987 1.54979 27.5574 1.5C27.9766 2.18871 28.379 2.84423 28.7396 3.43337C29.0665 3.63251 29.3264 3.77357 29.5612 3.93953C29.7624 4.08889 29.9804 4.24654 30.1062 4.43739C30.3829 4.87717 30.6092 5.34184 30.844 5.79821C30.8943 5.89779 30.9194 6.02225 30.9027 6.13012C30.8775 6.32097 30.4918 7.60712 30.3493 8.18796C30.2152 8.69412 30.1733 8.7688 30.3158 9.03432C30.4918 8.71071 30.9362 7.48265 31.1207 6.935C31.456 7.44946 31.9088 8.57795 32.0765 9.1256C32.1771 9.42431 32.2441 9.73133 32.1855 10.0466C31.9675 11.1088 31.456 13.5732 31.565 13.7723C31.9339 13.4321 32.0262 12.9674 32.4957 12.677Z" fill="#888079"/>
</svg>
