<svg width="18" height="18" viewBox="0 0 18 18" fill="none" xmlns="http://www.w3.org/2000/svg">
<path d="M6.84489 13.269L6.84532 13.2686L6.84677 13.2675L15.1281 2.77669L15.1277 2.77634L15.1281 2.77668C15.2486 2.62213 15.4352 2.53181 15.6319 2.53181H17.0362C17.1703 2.53181 17.2444 2.68596 17.1623 2.78804L17.1627 2.78839L17.1623 2.78805L7.3507 15.2213C7.09177 15.5465 6.598 15.5465 6.34108 15.2213L0.838626 8.25032C0.756549 8.14623 0.830617 7.99208 0.96475 7.99208H2.36899C2.46601 7.99219 2.56174 8.01429 2.64899 8.0567C2.73625 8.09911 2.81277 8.16074 2.87279 8.23695L6.84445 13.2693L6.84489 13.269Z" fill="#321B05" stroke="#595959" stroke-width="0.00111607"/>
</svg>
