<svg width="37" height="36" viewBox="0 0 37 36" fill="none" xmlns="http://www.w3.org/2000/svg">
<path d="M11.4486 23.0496C11.4131 23.0027 11.3777 22.9558 11.3433 22.9099C11.3766 22.8765 13.1309 21.0305 15.5109 18.5273L16.0762 19.0624C14.4763 20.5987 13.181 21.8398 12.5406 22.4458C12.2475 22.7221 11.8157 22.8515 11.4486 23.0496Z" fill="#888079"/>
<path d="M17.0396 29.5023C17.0803 29.6932 17.0156 29.9174 16.8633 30.0446C16.7872 30.1072 16.6944 30.1458 16.5984 30.1667C16.3888 30.2115 16.1708 30.1886 15.9601 30.1708C15.8454 30.1614 15.7338 30.0196 15.6358 29.9216C15.084 29.3709 14.7492 29.0319 14.2017 28.476C13.3402 27.5999 13.0742 27.5603 11.83 27.3089C11.6871 27.2797 11.5713 27.1087 11.4764 27.0294C11.3805 27.2161 11.3169 27.4633 11.1615 27.6156C9.6429 29.1154 8.10557 30.5964 6.58076 32.0899C6.19799 32.4664 5.91848 33.0171 5.2103 32.846C5.38448 32.9284 5.5597 33.0098 5.83608 33.1391C5.47834 33.5772 5.23221 34.0746 4.83171 34.3083C4.48962 34.5096 3.89617 34.569 3.54678 34.4063C3.32463 34.3031 3.13376 34.1716 2.98253 34.0142C2.98253 34.0142 2.98253 34.0142 2.98149 34.0131C2.824 33.8619 2.69363 33.671 2.59038 33.4489C2.42663 33.0995 2.48713 32.506 2.68737 32.1639C2.921 31.7634 3.41849 31.5183 3.85654 31.1596C3.98586 31.4359 4.06826 31.6112 4.14961 31.7853C3.97961 31.0772 4.52925 30.7987 4.90576 30.4149C6.39928 28.8901 7.88029 27.3527 9.38007 25.8342C9.53234 25.6788 9.77953 25.6162 9.96622 25.5192C9.88695 25.4243 9.71591 25.3096 9.6867 25.1657C9.43535 23.9214 9.39572 23.6554 8.51963 22.794C7.96373 22.2474 7.62476 21.9126 7.07408 21.3599C6.97604 21.2629 6.83524 21.1502 6.82481 21.0366C6.80708 20.8248 6.78414 20.6069 6.83003 20.3972C6.84984 20.3013 6.88843 20.2084 6.95101 20.1323C7.07825 19.9811 7.30249 19.9154 7.49335 19.956C7.72489 20.0061 7.93035 20.2178 7.98667 20.4442C8.02213 20.586 8.00649 20.7351 8.05134 20.8739C8.10348 21.0334 8.18901 21.1847 8.2933 21.3161C8.46122 21.5288 9.42701 22.4811 10.1842 23.1997C10.3125 23.3217 10.5764 23.3853 10.7578 23.3551C11.8655 23.1663 12.9627 22.8357 13.7772 22.0315C14.791 21.0324 15.6535 20.1761 16.4326 19.4001L17.6268 20.5318C16.8425 21.3202 15.9768 22.1922 14.9641 23.2195C14.16 24.033 13.8294 25.1302 13.6416 26.2378C13.6114 26.4193 13.674 26.6832 13.797 26.8114C14.5146 27.5686 15.4668 28.5344 15.6806 28.7023C15.812 28.8066 15.9622 28.8922 16.1218 28.9454C16.2605 28.9892 16.4107 28.9735 16.5515 29.009C16.7778 29.0653 16.9895 29.2708 17.0396 29.5023Z" fill="#888079"/>
<path d="M17.9836 20.8691L18.552 21.4084C16.0061 23.827 14.1205 25.6188 14.0871 25.6532C14.0402 25.6188 13.9932 25.5844 13.9463 25.5489C14.1445 25.1818 14.2738 24.749 14.5502 24.4559C15.1624 23.8093 16.4233 22.493 17.9836 20.8691Z" fill="#888079"/>
<path d="M35.4955 1.50146C35.4955 1.50251 35.4955 1.50251 35.4955 1.50251C34.5359 3.63433 33.6317 5.65768 32.7097 7.67164C32.5835 7.94594 32.4031 8.21815 32.1872 8.42779C31.5718 9.02749 26.8993 13.4726 22.4574 17.6956L21.7544 16.9509C25.0137 13.5686 28.4127 10.0465 29.9125 8.49141C29.4077 8.8846 25.9117 12.1501 25.4705 12.6049C23.8612 14.2632 22.6232 15.5199 21.4853 16.6651L20.3652 15.4782C21.501 14.3497 22.7494 13.1201 24.3921 11.5264C24.8468 11.0853 28.1123 7.58924 28.5055 7.08445C26.9588 8.57693 23.4638 11.9499 20.0971 15.1935L19.3921 14.4457C23.5879 10.0319 27.9736 5.42197 28.5691 4.80975C28.7798 4.59385 29.051 4.41342 29.3263 4.28722C31.3392 3.36628 33.3626 2.46203 35.4944 1.50146C35.4944 1.50146 35.4944 1.50146 35.4955 1.50146Z" fill="#888079"/>
<path d="M31.0405 20.1325C31.1031 20.2087 31.1416 20.3015 31.1625 20.3975C31.2084 20.6071 31.1844 20.8251 31.1667 21.0358C31.1573 21.1505 31.0154 21.2621 30.9185 21.3591C30.3678 21.9118 30.0288 22.2466 29.4719 22.7931C28.5958 23.6546 28.5561 23.9206 28.3048 25.1649C28.2756 25.3077 28.1045 25.4225 28.0253 25.5184C28.212 25.6154 28.4591 25.678 28.6114 25.8334C30.1112 27.3519 31.5922 28.8893 33.0857 30.4141C33.4622 30.7979 34.0119 31.0764 33.8419 31.7856C33.9232 31.6104 34.0056 31.4362 34.135 31.1598C34.573 31.5186 35.0705 31.7637 35.3041 32.1642C35.5044 32.5063 35.5649 33.0997 35.4011 33.4491C35.2979 33.6723 35.1664 33.8621 35.01 34.0134C35.009 34.0144 35.009 34.0144 35.009 34.0144C34.8577 34.1719 34.6679 34.3023 34.4447 34.4055C34.0964 34.5682 33.5019 34.5088 33.1598 34.3085C32.7593 34.0749 32.5142 33.5774 32.1554 33.1394C32.4318 33.01 32.607 32.9287 32.7812 32.8463C32.072 33.0163 31.7935 32.4666 31.4097 32.0901C29.8849 30.5966 28.3475 29.1156 26.829 27.6158C26.6736 27.4635 26.611 27.2164 26.514 27.0297C26.4191 27.1089 26.3033 27.28 26.1605 27.3092C24.9162 27.5605 24.6502 27.6002 23.7888 28.4763C23.2412 29.0322 22.9064 29.3711 22.3547 29.9228C22.2577 30.0198 22.145 30.1617 22.0314 30.1711C21.8207 30.1888 21.6017 30.2128 21.3931 30.1669C21.2971 30.146 21.2043 30.1075 21.1282 30.0449C20.9759 29.9176 20.9112 29.6934 20.9519 29.5025C21.002 29.271 21.2137 29.0655 21.439 29.0092C21.5808 28.9738 21.7299 28.9894 21.8687 28.9446C22.0282 28.8924 22.1795 28.8069 22.3109 28.7015C22.5236 28.5336 23.4769 27.5678 24.1945 26.8106C24.3165 26.6824 24.3801 26.4185 24.3499 26.2381C24.1621 25.1294 23.8305 24.0332 23.0263 23.2187C18.5604 18.6901 16.9521 17.1674 12.5206 12.6044C12.0784 12.1497 8.58338 8.88418 8.07755 8.49099C11.0229 11.5427 21.2804 22.1705 23.4414 24.4556C23.7178 24.7487 23.8482 25.1805 24.0453 25.5476C23.9984 25.5831 23.9515 25.6175 23.9056 25.6519C23.8034 25.5507 7.01164 9.60383 5.80493 8.42737C5.58904 8.21669 5.4086 7.94552 5.2824 7.67122C4.36042 5.65725 3.45618 3.6339 2.49665 1.50209C2.49561 1.50104 2.49665 1.50104 2.49561 1.5C2.49665 1.50104 2.49665 1.5 2.49769 1.50104C4.62951 2.46161 6.65286 3.36586 8.66578 4.2868C8.94112 4.413 9.21229 4.59239 9.42193 4.80932C10.5994 6.01603 26.5464 22.8078 26.6486 22.9089C26.6141 22.9559 26.5797 23.0017 26.5443 23.0487C26.1771 22.8516 25.7443 22.7212 25.4523 22.4448C23.1661 20.2848 12.5383 10.0273 9.48659 7.08403C9.87979 7.58882 13.1453 11.0848 13.6 11.5271C18.1641 15.9576 19.6868 17.5658 24.2143 22.0328C25.0288 22.837 26.125 23.1676 27.2337 23.3563C27.4141 23.3866 27.678 23.323 27.8062 23.201C28.5634 22.4834 29.5303 21.5301 29.6971 21.3174C29.8014 21.1859 29.887 21.0358 29.9402 20.8751C29.984 20.7364 29.9694 20.5873 30.0048 20.4454C30.0611 20.2202 30.2666 20.0084 30.4981 19.9584C30.689 19.9156 30.9132 19.9803 31.0405 20.1325Z" fill="#888079"/>
</svg>
