<svg width="37" height="36" viewBox="0 0 37 36" fill="none" xmlns="http://www.w3.org/2000/svg">
<path d="M11.4496 23.0496C11.4141 23.0027 11.3787 22.9558 11.3442 22.9099C11.3776 22.8765 13.1319 21.0305 15.5119 18.5273L16.0772 19.0624C14.4773 20.5987 13.1819 21.8398 12.5416 22.4458C12.2485 22.7221 11.8167 22.8515 11.4496 23.0496Z" fill="#F1AE71"/>
<path d="M17.0406 29.5023C17.0812 29.6932 17.0166 29.9174 16.8643 30.0446C16.7882 30.1072 16.6954 30.1458 16.5994 30.1667C16.3898 30.2115 16.1718 30.1886 15.9611 30.1708C15.8464 30.1614 15.7348 30.0196 15.6367 29.9216C15.085 29.3709 14.7502 29.0319 14.2027 28.476C13.3412 27.5999 13.0752 27.5603 11.831 27.3089C11.6881 27.2797 11.5723 27.1087 11.4774 27.0294C11.3815 27.2161 11.3178 27.4633 11.1624 27.6156C9.64388 29.1154 8.10655 30.5964 6.58173 32.0899C6.19897 32.4664 5.91945 33.0171 5.21128 32.846C5.38546 32.9284 5.56067 33.0098 5.83706 33.1391C5.47932 33.5772 5.23318 34.0746 4.83268 34.3083C4.49059 34.5096 3.89715 34.569 3.54775 34.4063C3.3256 34.3031 3.13474 34.1716 2.98351 34.0142C2.98351 34.0142 2.98351 34.0142 2.98247 34.0131C2.82498 33.8619 2.69461 33.671 2.59136 33.4489C2.42761 33.0995 2.4881 32.506 2.68835 32.1639C2.92197 31.7634 3.41947 31.5183 3.85751 31.1596C3.98684 31.4359 4.06923 31.6112 4.15059 31.7853C3.98058 31.0772 4.53022 30.7987 4.90673 30.4149C6.40026 28.8901 7.88127 27.3527 9.38105 25.8342C9.53332 25.6788 9.7805 25.6162 9.96719 25.5192C9.88793 25.4243 9.71688 25.3096 9.68768 25.1657C9.43633 23.9214 9.39669 23.6554 8.5206 22.794C7.9647 22.2474 7.62574 21.9126 7.07506 21.3599C6.97702 21.2629 6.83622 21.1502 6.82579 21.0366C6.80806 20.8248 6.78511 20.6069 6.831 20.3972C6.85082 20.3013 6.88941 20.2084 6.95199 20.1323C7.07923 19.9811 7.30346 19.9154 7.49433 19.956C7.72587 20.0061 7.93133 20.2178 7.98765 20.4442C8.02311 20.586 8.00747 20.7351 8.05231 20.8739C8.10446 21.0334 8.18998 21.1847 8.29428 21.3161C8.4622 21.5288 9.42798 22.4811 10.1852 23.1997C10.3135 23.3217 10.5773 23.3853 10.7588 23.3551C11.8664 23.1663 12.9636 22.8357 13.7782 22.0315C14.7919 21.0324 15.6545 20.1761 16.4336 19.4001L17.6278 20.5318C16.8435 21.3202 15.9778 22.1922 14.9651 23.2195C14.161 24.033 13.8303 25.1302 13.6426 26.2378C13.6124 26.4193 13.6749 26.6832 13.798 26.8114C14.5156 27.5686 15.4678 28.5344 15.6816 28.7023C15.813 28.8066 15.9632 28.8922 16.1228 28.9454C16.2615 28.9892 16.4117 28.9735 16.5525 29.009C16.7788 29.0653 16.9905 29.2708 17.0406 29.5023Z" fill="#F1AE71"/>
<path d="M17.9846 20.8691L18.553 21.4084C16.0071 23.827 14.1214 25.6188 14.0881 25.6532C14.0411 25.6188 13.9942 25.5844 13.9473 25.5489C14.1454 25.1818 14.2748 24.749 14.5511 24.4559C15.1634 23.8093 16.4243 22.493 17.9846 20.8691Z" fill="#F1AE71"/>
<path d="M35.4964 1.50146C35.4964 1.50251 35.4964 1.50251 35.4964 1.50251C34.5369 3.63433 33.6327 5.65768 32.7107 7.67164C32.5845 7.94594 32.404 8.21815 32.1881 8.42779C31.5728 9.02749 26.9003 13.4726 22.4583 17.6956L21.7554 16.9509C25.0146 13.5686 28.4137 10.0465 29.9134 8.49141C29.4086 8.8846 25.9126 12.1501 25.4715 12.6049C23.8622 14.2632 22.6242 15.5199 21.4863 16.6651L20.3662 15.4782C21.5019 14.3497 22.7504 13.1201 24.393 11.5264C24.8478 11.0853 28.1133 7.58924 28.5065 7.08445C26.9598 8.57693 23.4648 11.9499 20.0981 15.1935L19.3931 14.4457C23.5889 10.0319 27.9746 5.42197 28.5701 4.80975C28.7808 4.59385 29.052 4.41342 29.3273 4.28722C31.3402 3.36628 33.3636 2.46203 35.4954 1.50146C35.4954 1.50146 35.4954 1.50146 35.4964 1.50146Z" fill="#F1AE71"/>
<path d="M31.0415 20.1325C31.104 20.2087 31.1426 20.3015 31.1635 20.3975C31.2094 20.6071 31.1854 20.8251 31.1677 21.0358C31.1583 21.1505 31.0164 21.2621 30.9194 21.3591C30.3687 21.9118 30.0298 22.2466 29.4728 22.7931C28.5968 23.6546 28.5571 23.9206 28.3058 25.1649C28.2766 25.3077 28.1055 25.4225 28.0262 25.5184C28.2129 25.6154 28.4601 25.678 28.6124 25.8334C30.1122 27.3519 31.5932 28.8893 33.0867 30.4141C33.4632 30.7979 34.0129 31.0764 33.8429 31.7856C33.9242 31.6104 34.0066 31.4362 34.1359 31.1598C34.574 31.5186 35.0715 31.7637 35.3051 32.1642C35.5053 32.5063 35.5658 33.0997 35.4021 33.4491C35.2988 33.6723 35.1674 33.8621 35.011 34.0134C35.0099 34.0144 35.0099 34.0144 35.0099 34.0144C34.8587 34.1719 34.6689 34.3023 34.4457 34.4055C34.0973 34.5682 33.5029 34.5088 33.1608 34.3085C32.7603 34.0749 32.5152 33.5774 32.1564 33.1394C32.4328 33.01 32.608 32.9287 32.7822 32.8463C32.073 33.0163 31.7945 32.4666 31.4107 32.0901C29.8859 30.5966 28.3485 29.1156 26.83 27.6158C26.6746 27.4635 26.612 27.2164 26.515 27.0297C26.4201 27.1089 26.3043 27.28 26.1614 27.3092C24.9172 27.5605 24.6512 27.6002 23.7897 28.4763C23.2422 29.0322 22.9074 29.3711 22.3557 29.9228C22.2587 30.0198 22.146 30.1617 22.0323 30.1711C21.8217 30.1888 21.6026 30.2128 21.394 30.1669C21.2981 30.146 21.2053 30.1075 21.1291 30.0449C20.9769 29.9176 20.9122 29.6934 20.9529 29.5025C21.0029 29.271 21.2147 29.0655 21.4399 29.0092C21.5818 28.9738 21.7309 28.9894 21.8696 28.9446C22.0292 28.8924 22.1804 28.8069 22.3119 28.7015C22.5246 28.5336 23.4779 27.5678 24.1954 26.8106C24.3175 26.6824 24.3811 26.4185 24.3508 26.2381C24.1631 25.1294 23.8314 24.0332 23.0273 23.2187C18.5614 18.6901 16.9531 17.1674 12.5216 12.6044C12.0793 12.1497 8.58436 8.88418 8.07852 8.49099C11.0239 11.5427 21.2814 22.1705 23.4424 24.4556C23.7188 24.7487 23.8492 25.1805 24.0463 25.5476C23.9994 25.5831 23.9524 25.6175 23.9065 25.6519C23.8043 25.5507 7.01262 9.60383 5.80591 8.42737C5.59001 8.21669 5.40958 7.94552 5.28338 7.67122C4.3614 5.65725 3.45715 3.6339 2.49762 1.50209C2.49658 1.50104 2.49762 1.50104 2.49658 1.5C2.49762 1.50104 2.49762 1.5 2.49867 1.50104C4.63049 2.46161 6.65384 3.36586 8.66676 4.2868C8.9421 4.413 9.21327 4.59239 9.4229 4.80932C10.6004 6.01603 26.5473 22.8078 26.6495 22.9089C26.6151 22.9559 26.5807 23.0017 26.5452 23.0487C26.1781 22.8516 25.7453 22.7212 25.4533 22.4448C23.1671 20.2848 12.5393 10.0273 9.48757 7.08403C9.88077 7.58882 13.1463 11.0848 13.601 11.5271C18.165 15.9576 19.6878 17.5658 24.2153 22.0328C25.0298 22.837 26.126 23.1676 27.2346 23.3563C27.4151 23.3866 27.6789 23.323 27.8072 23.201C28.5644 22.4834 29.5312 21.5301 29.6981 21.3174C29.8024 21.1859 29.8879 21.0358 29.9411 20.8751C29.9849 20.7364 29.9703 20.5873 30.0058 20.4454C30.0621 20.2202 30.2676 20.0084 30.4991 19.9584C30.69 19.9156 30.9142 19.9803 31.0415 20.1325Z" fill="#F1AE71"/>
</svg>
