<svg width="12" height="12" viewBox="0 0 12 12" fill="none" xmlns="http://www.w3.org/2000/svg">
<path fill-rule="evenodd" clip-rule="evenodd" d="M7.97659 7.50326H8.50326L11.8299 10.8366L10.8366 11.8299L7.50326 8.50326V7.97659L7.32326 7.78992C6.56326 8.44326 5.57659 8.83659 4.50326 8.83659C2.10992 8.83659 0.169922 6.89659 0.169922 4.50326C0.169922 2.10992 2.10992 0.169922 4.50326 0.169922C6.89659 0.169922 8.83659 2.10992 8.83659 4.50326C8.83659 5.57659 8.44326 6.56326 7.78992 7.32326L7.97659 7.50326ZM1.50326 4.50326C1.50326 6.16326 2.84326 7.50326 4.50326 7.50326C6.16326 7.50326 7.50326 6.16326 7.50326 4.50326C7.50326 2.84326 6.16326 1.50326 4.50326 1.50326C2.84326 1.50326 1.50326 2.84326 1.50326 4.50326Z" fill="#8B8783"/>
</svg>
