<svg width="34" height="34" viewBox="0 0 34 34" fill="none" xmlns="http://www.w3.org/2000/svg">
<path d="M9.45299 22.0496C9.41753 22.0027 9.38207 21.9558 9.34766 21.9099C9.38103 21.8765 11.1353 20.0305 13.5153 17.5273L14.0806 18.0624C12.4807 19.5987 11.1854 20.8398 10.545 21.4458C10.2519 21.7221 9.82012 21.8515 9.45299 22.0496Z" fill="url(#paint0_radial_2802_1157)"/>
<path d="M15.044 28.5023C15.0847 28.6932 15.02 28.9174 14.8677 29.0446C14.7916 29.1072 14.6988 29.1458 14.6028 29.1667C14.3932 29.2115 14.1752 29.1886 13.9645 29.1708C13.8498 29.1614 13.7382 29.0196 13.6402 28.9216C13.0884 28.3709 12.7536 28.0319 12.2061 27.476C11.3446 26.5999 11.0786 26.5603 9.83439 26.3089C9.6915 26.2797 9.57573 26.1087 9.48082 26.0294C9.38487 26.2161 9.32125 26.4633 9.16585 26.6156C7.64729 28.1154 6.10996 29.5964 4.58515 31.0899C4.20238 31.4664 3.92287 32.0171 3.2147 31.846C3.38887 31.9284 3.56409 32.0098 3.84048 32.1391C3.48274 32.5772 3.2366 33.0746 2.8361 33.3083C2.49401 33.5096 1.90056 33.569 1.55117 33.4063C1.32902 33.3031 1.13816 33.1716 0.986928 33.0142C0.986928 33.0142 0.986928 33.0142 0.985885 33.0131C0.828397 32.8619 0.698027 32.671 0.594773 32.4489C0.431028 32.0995 0.49152 31.506 0.691769 31.1639C0.925393 30.7634 1.42289 30.5183 1.86093 30.1596C1.99026 30.4359 2.07265 30.6112 2.154 30.7853C1.984 30.0772 2.53364 29.7987 2.91015 29.4149C4.40368 27.8901 5.88469 26.3527 7.38447 24.8342C7.53674 24.6788 7.78392 24.6162 7.97061 24.5192C7.89135 24.4243 7.7203 24.3096 7.6911 24.1657C7.43974 22.9214 7.40011 22.6554 6.52402 21.794C5.96812 21.2474 5.62916 20.9126 5.07847 20.3599C4.98044 20.2629 4.83964 20.1502 4.82921 20.0366C4.81148 19.8248 4.78853 19.6069 4.83442 19.3972C4.85424 19.3013 4.89283 19.2084 4.9554 19.1323C5.08265 18.9811 5.30688 18.9154 5.49775 18.956C5.72928 19.0061 5.93475 19.2178 5.99107 19.4442C6.02653 19.586 6.01088 19.7351 6.05573 19.8739C6.10788 20.0334 6.1934 20.1847 6.2977 20.3161C6.46562 20.5288 7.4314 21.4811 8.18859 22.1997C8.31688 22.3217 8.58075 22.3853 8.76222 22.3551C9.86985 22.1663 10.967 21.8357 11.7816 21.0315C12.7954 20.0324 13.6579 19.1761 14.437 18.4001L15.6312 19.5318C14.8469 20.3202 13.9812 21.1922 12.9685 22.2195C12.1644 23.033 11.8337 24.1302 11.646 25.2378C11.6158 25.4193 11.6783 25.6832 11.8014 25.8114C12.519 26.5686 13.4712 27.5344 13.685 27.7023C13.8164 27.8066 13.9666 27.8922 14.1262 27.9454C14.2649 27.9892 14.4151 27.9735 14.5559 28.009C14.7822 28.0653 14.9939 28.2708 15.044 28.5023Z" fill="url(#paint1_radial_2802_1157)"/>
<path d="M15.988 19.8691L16.5564 20.4084C14.0105 22.827 12.1249 24.6188 12.0915 24.6532C12.0446 24.6188 11.9976 24.5844 11.9507 24.5489C12.1488 24.1818 12.2782 23.749 12.5546 23.4559C13.1668 22.8093 14.4277 21.493 15.988 19.8691Z" fill="url(#paint2_radial_2802_1157)"/>
<path d="M33.4998 0.501465C33.4998 0.502508 33.4998 0.502508 33.4998 0.502508C32.5403 2.63433 31.6361 4.65768 30.7141 6.67164C30.5879 6.94594 30.4075 7.21815 30.1916 7.42779C29.5762 8.02749 24.9037 12.4726 20.4618 16.6956L19.7588 15.9509C23.0181 12.5686 26.4171 9.04647 27.9169 7.49141C27.4121 7.8846 23.9161 11.1501 23.4749 11.6049C21.8656 13.2632 20.6276 14.5199 19.4897 15.6651L18.3696 14.4782C19.5054 13.3497 20.7538 12.1201 22.3965 10.5264C22.8512 10.0853 26.1167 6.58924 26.5099 6.08445C24.9632 7.57693 21.4682 10.9499 18.1015 14.1935L17.3965 13.4457C21.5923 9.03187 25.978 4.42197 26.5735 3.80975C26.7842 3.59385 27.0554 3.41342 27.3307 3.28722C29.3436 2.36628 31.367 1.46203 33.4988 0.501465C33.4988 0.501465 33.4988 0.501465 33.4998 0.501465Z" fill="url(#paint3_radial_2802_1157)"/>
<path d="M29.0449 19.1325C29.1075 19.2087 29.146 19.3015 29.1669 19.3975C29.2128 19.6071 29.1888 19.8251 29.1711 20.0358C29.1617 20.1505 29.0198 20.2621 28.9228 20.3591C28.3722 20.9118 28.0332 21.2466 27.4763 21.7931C26.6002 22.6546 26.5605 22.9206 26.3092 24.1649C26.28 24.3077 26.1089 24.4225 26.0297 24.5184C26.2164 24.6154 26.4635 24.678 26.6158 24.8334C28.1156 26.3519 29.5966 27.8893 31.0901 29.4141C31.4666 29.7979 32.0163 30.0764 31.8463 30.7856C31.9276 30.6104 32.01 30.4362 32.1393 30.1598C32.5774 30.5186 33.0749 30.7637 33.3085 31.1642C33.5088 31.5063 33.5693 32.0997 33.4055 32.4491C33.3023 32.6723 33.1708 32.8621 33.0144 33.0134C33.0134 33.0144 33.0134 33.0144 33.0134 33.0144C32.8621 33.1719 32.6723 33.3023 32.4491 33.4055C32.1008 33.5682 31.5063 33.5088 31.1642 33.3085C30.7637 33.0749 30.5186 32.5774 30.1598 32.1394C30.4362 32.01 30.6114 31.9287 30.7856 31.8463C30.0764 32.0163 29.7979 31.4666 29.4141 31.0901C27.8893 29.5966 26.3519 28.1156 24.8334 26.6158C24.678 26.4635 24.6154 26.2164 24.5184 26.0297C24.4235 26.1089 24.3077 26.28 24.1648 26.3092C22.9206 26.5605 22.6546 26.6002 21.7931 27.4763C21.2456 28.0322 20.9108 28.3711 20.3591 28.9228C20.2621 29.0198 20.1494 29.1617 20.0358 29.1711C19.8251 29.1888 19.6061 29.2128 19.3975 29.1669C19.3015 29.146 19.2087 29.1075 19.1325 29.0449C18.9803 28.9176 18.9156 28.6934 18.9563 28.5025C19.0063 28.271 19.2181 28.0655 19.4434 28.0092C19.5852 27.9738 19.7343 27.9894 19.8731 27.9446C20.0326 27.8924 20.1839 27.8069 20.3153 27.7015C20.528 27.5336 21.4813 26.5678 22.1989 25.8106C22.3209 25.6824 22.3845 25.4185 22.3543 25.2381C22.1665 24.1294 21.8349 23.0332 21.0307 22.2187C16.5648 17.6901 14.9565 16.1674 10.525 11.6044C10.0828 11.1497 6.58778 7.88418 6.08194 7.49099C9.02727 10.5427 19.2848 21.1705 21.4458 23.4556C21.7222 23.7487 21.8526 24.1805 22.0497 24.5476C22.0028 24.5831 21.9559 24.6175 21.91 24.6519C21.8078 24.5507 5.01603 8.60383 3.80932 7.42737C3.59343 7.21669 3.413 6.94552 3.2868 6.67122C2.36482 4.65725 1.46057 2.6339 0.501043 0.502086C0.5 0.501043 0.501043 0.501043 0.5 0.5C0.501043 0.501043 0.501043 0.5 0.502086 0.501043C2.6339 1.46161 4.65725 2.36586 6.67017 3.2868C6.94552 3.413 7.21669 3.59239 7.42632 3.80932C8.60383 5.01603 24.5507 21.8078 24.653 21.9089C24.6185 21.9559 24.5841 22.0017 24.5487 22.0487C24.1815 21.8516 23.7487 21.7212 23.4567 21.4448C21.1705 19.2848 10.5427 9.02727 7.49099 6.08403C7.88418 6.58882 11.1497 10.0848 11.6044 10.5271C16.1684 14.9576 17.6912 16.5658 22.2187 21.0328C23.0332 21.837 24.1294 22.1676 25.2381 22.3563C25.4185 22.3866 25.6824 22.323 25.8106 22.201C26.5678 21.4834 27.5347 20.5301 27.7015 20.3174C27.8058 20.1859 27.8914 20.0358 27.9446 19.8751C27.9884 19.7364 27.9738 19.5873 28.0092 19.4454C28.0655 19.2202 28.271 19.0084 28.5025 18.9584C28.6934 18.9156 28.9176 18.9803 29.0449 19.1325Z" fill="url(#paint4_radial_2802_1157)"/>
<defs>
<radialGradient id="paint0_radial_2802_1157" cx="0" cy="0" r="1" gradientUnits="userSpaceOnUse" gradientTransform="translate(11.7141 19.7885) rotate(90) scale(4.2566 4.4549)">
<stop stop-color="#888079"/>
<stop offset="0.160125" stop-color="#888079"/>
<stop offset="1" stop-color="#888079" stop-opacity="0"/>
</radialGradient>
<radialGradient id="paint1_radial_2802_1157" cx="0" cy="0" r="1" gradientUnits="userSpaceOnUse" gradientTransform="translate(8.06583 25.9501) rotate(90) scale(14.2128 14.2418)">
<stop stop-color="#888079"/>
<stop offset="0.160125" stop-color="#888079"/>
<stop offset="1" stop-color="#888079" stop-opacity="0"/>
</radialGradient>
<radialGradient id="paint2_radial_2802_1157" cx="0" cy="0" r="1" gradientUnits="userSpaceOnUse" gradientTransform="translate(14.2535 22.2612) rotate(90) scale(4.50301 4.33514)">
<stop stop-color="#888079"/>
<stop offset="0.160125" stop-color="#888079"/>
<stop offset="1" stop-color="#888079" stop-opacity="0"/>
</radialGradient>
<radialGradient id="paint3_radial_2802_1157" cx="0" cy="0" r="1" gradientUnits="userSpaceOnUse" gradientTransform="translate(25.4482 8.59851) rotate(90) scale(15.2427 15.1573)">
<stop stop-color="#888079"/>
<stop offset="0.160125" stop-color="#888079"/>
<stop offset="1" stop-color="#888079" stop-opacity="0"/>
</radialGradient>
<radialGradient id="paint4_radial_2802_1157" cx="0" cy="0" r="1" gradientUnits="userSpaceOnUse" gradientTransform="translate(16.9999 16.9997) rotate(90) scale(31.0606 31.061)">
<stop stop-color="#888079"/>
<stop offset="0.160125" stop-color="#888079"/>
<stop offset="1" stop-color="#888079" stop-opacity="0"/>
</radialGradient>
</defs>
</svg>
